<!DOCTYPE svg PUBLIC "-//W3C//DTD SVG 20010904//EN" "http://www.w3.org/TR/2001/REC-SVG-20010904/DTD/svg10.dtd">
<svg version="1.0" xmlns="http://www.w3.org/2000/svg" width="564px" height="564px" viewBox="0 0 5640 5640" preserveAspectRatio="xMidYMid meet">
<g id="layer101" fill="#181515" stroke="none">
<path d="M0 2820 l0 -2820 2820 0 2820 0 0 2820 0 2820 -2820 0 -2820 0 0 -2820z"/>
</g>
<g id="layer102" fill="#9f5e51" stroke="none">
<path d="M0 2820 l0 -2820 2820 0 2820 0 0 2820 0 2820 -2820 0 -2820 0 0 -2820z m3129 2154 c316 -46 624 -163 891 -339 131 -85 207 -148 333 -273 183 -181 307 -352 418 -577 146 -298 213 -562 226 -890 22 -593 -195 -1161 -609 -1590 -217 -226 -448 -383 -748 -508 -469 -196 -1026 -211 -1530 -41 -132 45 -357 154 -475 231 -786 515 -1157 1465 -925 2374 78 303 231 602 435 849 185 224 447 432 710 563 229 114 557 200 835 221 94 6 330 -4 439 -20z"/>
<path d="M2615 4959 c-162 -16 -476 -86 -491 -110 -3 -5 6 -35 21 -66 35 -77 148 -186 310 -298 285 -197 419 -337 544 -566 46 -85 47 -89 26 -89 -8 0 -29 28 -46 63 -111 221 -248 366 -530 562 -185 130 -288 228 -329 318 -18 37 -33 67 -33 67 -13 0 -137 -55 -229 -101 -173 -86 -324 -187 -448 -297 l-45 -41 1 -88 c0 -60 7 -110 22 -158 60 -196 154 -268 495 -384 290 -99 467 -177 467 -207 0 -9 -3 -14 -7 -12 -143 73 -257 120 -423 177 -239 81 -281 98 -354 145 -81 51 -135 112 -172 191 -34 72 -64 195 -64 262 l0 37 -61 -59 c-134 -132 -273 -328 -371 -525 -32 -63 -58 -120 -58 -127 0 -7 29 -14 77 -18 194 -17 306 -56 432 -149 43 -32 60 -51 53 -58 -7 -7 -27 3 -62 31 -63 50 -176 106 -254 126 -32 8 -104 18 -161 21 l-102 7 -26 -69 c-95 -256 -133 -499 -124 -789 12 -392 115 -739 318 -1071 165 -270 441 -543 723 -714 175 -105 461 -224 477 -198 28 45 38 233 18 330 -33 153 -96 226 -335 383 -229 152 -304 234 -340 370 -16 59 -19 245 -4 245 11 0 14 -30 11 -95 -3 -55 23 -174 49 -226 40 -78 127 -156 305 -275 244 -161 305 -234 341 -404 19 -87 13 -241 -10 -308 l-15 -42 42 -11 c118 -32 285 -60 393 -66 l120 -6 31 39 c43 54 110 190 128 260 33 126 10 290 -58 418 -45 85 -153 194 -307 311 -243 185 -331 300 -338 441 -3 58 0 79 18 114 21 42 103 130 121 130 20 0 7 -25 -30 -57 -46 -39 -91 -123 -91 -170 0 -47 32 -133 71 -190 50 -72 110 -128 266 -246 178 -135 267 -229 322 -339 107 -217 93 -411 -47 -642 -23 -37 -42 -70 -42 -72 0 -4 131 2 235 12 97 9 211 29 303 54 76 21 78 23 125 87 62 83 121 206 154 319 31 109 42 325 24 456 -27 187 -99 396 -185 535 -17 27 -23 44 -15 48 14 9 30 -13 88 -125 157 -306 194 -696 93 -990 -24 -69 -92 -204 -126 -249 -14 -19 -24 -36 -22 -38 7 -8 158 52 281 112 124 60 303 171 373 232 l33 28 -36 50 c-77 107 -250 482 -313 675 -19 61 -32 126 -36 180 l-5 85 19 -85 c25 -115 74 -256 149 -430 104 -240 221 -450 251 -450 16 0 200 182 278 275 234 280 393 622 463 999 27 142 37 456 20 606 -74 639 -417 1203 -949 1558 -108 72 -333 192 -359 192 -33 0 6 -176 59 -270 17 -30 70 -114 119 -186 115 -173 272 -445 308 -536 63 -157 76 -227 75 -413 0 -156 -2 -177 -27 -258 -43 -140 -95 -234 -199 -358 -34 -42 -53 -58 -60 -51 -7 7 3 28 34 64 106 126 150 204 191 333 56 178 56 361 1 552 -44 153 -145 343 -345 649 -66 100 -130 206 -144 237 -27 59 -55 171 -55 224 0 29 -4 33 -57 53 -280 105 -626 148 -938 119z m489 -1303 c19 -65 20 -79 4 -74 -7 3 -18 24 -25 48 -7 23 -15 51 -18 61 -4 13 -1 19 9 19 9 0 20 -20 30 -54z m-448 -361 c20 -30 34 -62 34 -80 0 -30 0 -30 -25 14 -14 24 -41 66 -60 91 -42 58 -49 103 -9 55 14 -16 41 -52 60 -80z m-1079 -83 c40 -86 68 -189 78 -287 6 -62 5 -68 -8 -50 -7 11 -20 55 -26 98 -15 96 -51 202 -91 273 -16 30 -30 62 -30 71 1 30 38 -22 77 -105z m1565 -120 c-9 -129 -15 -169 -28 -181 -15 -15 -16 -13 -11 14 3 17 9 91 12 165 3 74 9 153 12 175 5 38 6 39 16 17 8 -17 7 -73 -1 -190z m-412 -345 c0 -7 -14 -36 -31 -66 -43 -75 -59 -53 -18 27 29 55 49 71 49 39z m430 -24 c6 -27 27 -85 47 -130 44 -103 40 -145 -5 -56 -39 75 -85 210 -77 223 12 20 23 9 35 -37z m-1510 -86 c-1 -64 -26 -178 -41 -188 -19 -11 -20 -7 -10 28 5 17 15 72 21 122 13 92 30 115 30 38z m2169 -96 c-28 -67 -48 -160 -50 -241 -2 -34 -4 -27 -9 30 -9 89 6 174 46 252 38 74 48 42 13 -41z m-1235 0 c6 -9 -81 -91 -96 -91 -19 0 -4 25 35 61 45 41 52 44 61 30z m1193 -373 c-3 -8 -6 -5 -6 6 -1 11 2 17 5 13 3 -3 4 -12 1 -19z"/>
</g>
<g id="layer103" fill="#db6b5d" stroke="none">
<path d="M0 2820 l0 -2820 2820 0 2820 0 0 2820 0 2820 -2820 0 -2820 0 0 -2820z m3130 2154 c466 -67 907 -289 1239 -625 172 -173 297 -350 406 -574 217 -442 277 -915 180 -1400 -111 -553 -456 -1062 -930 -1375 -370 -243 -763 -360 -1210 -361 -643 0 -1252 285 -1667 781 -548 655 -662 1581 -289 2345 342 699 1010 1158 1781 1224 131 12 352 5 490 -15z"/>
<path d="M2615 4959 c-162 -16 -476 -86 -491 -110 -3 -5 6 -35 21 -66 35 -77 148 -186 310 -298 233 -161 347 -267 457 -425 44 -63 128 -210 128 -223 0 -4 -8 -7 -17 -7 -12 0 -32 27 -61 84 -107 211 -242 349 -544 560 -156 108 -274 226 -307 308 l-24 56 -61 -25 c-107 -44 -278 -133 -377 -198 -135 -88 -276 -201 -283 -228 -18 -68 15 -233 66 -329 67 -125 172 -189 495 -299 247 -83 423 -163 423 -191 0 -24 -3 -24 -90 21 -75 39 -268 113 -430 166 -294 95 -417 198 -474 395 -17 59 -23 100 -25 169 l-1 45 -36 -35 c-63 -60 -192 -220 -258 -319 -62 -93 -196 -337 -196 -357 0 -6 41 -13 93 -16 124 -8 188 -23 275 -63 79 -36 202 -121 202 -139 0 -26 -15 -21 -73 22 -126 93 -214 125 -392 144 -99 10 -118 10 -126 -2 -29 -44 -103 -332 -125 -485 -23 -159 -23 -449 0 -599 108 -698 515 -1276 1128 -1600 104 -54 323 -145 352 -145 24 0 39 74 40 195 1 142 -24 227 -92 317 -40 53 -76 82 -232 187 -102 69 -210 151 -241 182 -107 108 -151 247 -132 414 l9 80 12 -53 c7 -29 12 -82 12 -116 0 -135 65 -261 182 -353 35 -28 123 -89 197 -137 198 -129 267 -210 306 -357 24 -88 19 -269 -9 -356 -6 -20 0 -23 103 -47 113 -26 323 -56 398 -56 48 0 63 16 126 130 62 114 80 181 80 300 0 87 -5 118 -26 178 -56 160 -140 258 -369 430 -160 120 -242 205 -289 299 -29 58 -34 78 -34 138 0 48 6 81 19 105 22 42 105 130 123 130 25 0 13 -26 -32 -70 -57 -56 -79 -112 -73 -184 10 -124 102 -236 345 -420 202 -152 281 -246 341 -404 23 -59 26 -82 26 -197 1 -119 -1 -137 -28 -208 -16 -43 -50 -112 -77 -153 -27 -41 -49 -77 -49 -80 0 -2 21 -2 48 0 26 3 101 10 167 16 112 11 267 37 360 61 50 13 96 72 166 214 93 191 125 396 95 620 -27 207 -83 381 -167 520 -30 48 -38 70 -30 78 15 15 29 -5 90 -123 157 -306 194 -696 93 -990 -24 -69 -92 -204 -126 -249 -14 -19 -24 -36 -22 -38 7 -8 158 52 281 112 124 60 303 171 373 232 l33 28 -36 50 c-77 107 -250 481 -313 675 -22 67 -32 123 -36 190 l-6 95 20 -89 c27 -124 69 -251 141 -418 75 -177 191 -404 228 -448 l28 -34 40 32 c22 17 79 73 127 123 309 325 499 701 577 1146 31 172 33 501 6 668 -75 454 -269 848 -576 1168 -119 123 -218 206 -363 303 -116 78 -354 202 -365 190 -11 -10 24 -163 51 -222 14 -31 79 -138 145 -238 134 -205 258 -421 301 -523 41 -99 78 -248 86 -350 11 -153 -27 -346 -96 -483 -31 -61 -133 -202 -173 -238 -44 -41 -41 -5 5 51 106 125 150 204 191 332 56 178 56 361 1 552 -44 153 -145 343 -345 649 -66 100 -130 206 -144 237 -27 59 -55 171 -55 224 0 29 -4 33 -57 53 -280 105 -626 148 -938 119z m489 -1303 c20 -68 20 -78 0 -74 -11 2 -23 25 -34 66 -16 59 -16 62 1 62 13 0 22 -15 33 -54z m-488 -299 c66 -82 86 -121 78 -152 -6 -26 -7 -25 -34 24 -16 28 -41 68 -58 88 -28 37 -50 93 -35 93 5 -1 27 -24 49 -53z m-1060 -93 c48 -86 90 -218 102 -324 6 -47 9 -86 7 -88 -8 -8 -45 69 -45 95 0 53 -39 185 -80 269 -64 132 -51 168 16 48z m1594 -43 c0 -116 -21 -296 -36 -311 -18 -18 -18 -3 -2 228 10 146 14 171 25 156 7 -10 13 -43 13 -73z m-416 -460 c7 -10 -54 -131 -65 -131 -21 0 -18 27 8 80 26 56 44 72 57 51z m426 -38 c6 -27 27 -85 47 -130 19 -45 33 -92 31 -105 -3 -19 -9 -13 -35 37 -42 81 -87 211 -80 230 11 28 24 16 37 -32z m-1500 -67 c0 -6 -7 -51 -15 -100 -10 -63 -20 -96 -35 -110 -25 -25 -25 -21 -5 99 8 50 18 106 21 125 5 33 7 34 20 15 8 -10 14 -24 14 -29z m2171 -94 c-36 -71 -51 -154 -51 -283 0 -67 -2 -120 -4 -118 -3 2 -9 60 -14 127 -11 139 -1 204 44 294 21 42 28 49 35 35 7 -11 4 -28 -10 -55z m-1245 -17 c4 -9 -12 -31 -42 -60 -54 -49 -64 -53 -64 -28 0 17 77 103 92 103 5 0 11 -7 14 -15z"/>
</g>
<g id="layer104" fill="#6aa5a9" stroke="none">
<path d="M0 2820 l0 -2820 2820 0 2820 0 0 2820 0 2820 -2820 0 -2820 0 0 -2820z m3130 2154 c466 -67 907 -289 1239 -625 172 -173 297 -350 406 -574 217 -442 277 -915 180 -1400 -111 -553 -456 -1062 -930 -1375 -225 -148 -520 -273 -745 -316 -14 -3 -67 -13 -100 -20 -17 -4 -96 -14 -155 -20 -97 -9 -370 -3 -480 11 -1294 168 -2155 1426 -1839 2687 78 313 216 590 422 848 94 117 242 264 342 339 41 31 80 59 85 64 77 63 345 207 485 261 173 66 405 118 600 135 130 12 351 5 490 -15z"/>
<path d="M2615 4959 c-162 -16 -476 -86 -491 -110 -3 -5 6 -35 21 -66 35 -77 148 -186 310 -298 233 -161 347 -267 457 -425 44 -63 128 -210 128 -223 0 -4 -11 -7 -24 -7 -14 0 -34 -12 -48 -29 -23 -27 -25 -37 -26 -157 -1 -71 -7 -302 -13 -513 l-12 -384 23 -19 c32 -26 79 -22 146 12 32 16 59 28 60 27 1 -1 9 -27 18 -59 9 -31 30 -86 46 -123 26 -58 30 -79 30 -156 l0 -89 -49 0 -49 0 10 37 c35 128 -54 263 -174 263 -114 0 -178 -119 -145 -273 l8 -37 -75 0 -75 0 16 46 c28 82 2 220 -50 262 -12 11 -10 21 17 75 17 34 32 64 34 66 1 3 8 -1 14 -7 16 -16 53 -15 67 2 13 16 28 550 23 821 -2 126 -5 152 -19 163 -24 17 -57 15 -76 -6 -15 -16 -17 -50 -17 -273 0 -140 -3 -264 -6 -277 -6 -20 -11 -15 -43 39 -21 35 -47 66 -61 71 -15 7 -20 12 -12 15 10 4 10 8 1 20 -7 8 -14 26 -15 41 -34 364 -44 402 -105 402 -50 0 -65 -32 -104 -226 -5 -21 -10 -19 -112 32 -60 29 -202 85 -318 124 -258 87 -354 133 -438 210 -97 90 -156 230 -157 373 0 37 -4 56 -10 52 -6 -4 -7 -11 -4 -17 4 -6 2 -8 -3 -5 -20 12 -185 -183 -286 -335 -59 -90 -187 -327 -187 -346 0 -8 21 -12 59 -12 99 0 230 -28 310 -66 86 -40 201 -119 201 -138 0 -27 -14 -23 -73 21 -126 93 -214 125 -392 144 -99 10 -118 10 -126 -2 -29 -44 -103 -332 -125 -485 -23 -159 -23 -449 0 -599 108 -698 515 -1276 1128 -1600 104 -54 323 -145 352 -145 24 0 39 74 40 195 1 142 -24 227 -92 317 -40 53 -76 82 -232 187 -102 69 -210 151 -241 182 -107 108 -151 247 -132 414 l9 80 12 -53 c7 -29 12 -82 12 -116 0 -88 31 -182 84 -253 47 -64 133 -132 313 -248 174 -112 250 -204 288 -346 19 -70 19 -249 1 -319 -8 -30 -13 -56 -12 -58 9 -8 238 -54 339 -67 180 -23 201 -21 231 18 35 47 101 182 122 252 27 92 23 220 -11 320 -57 171 -131 256 -400 457 -55 41 -128 105 -162 141 -54 59 -71 87 -136 224 -23 49 17 163 78 223 19 19 35 40 35 46 0 6 12 11 27 10 23 -1 28 -7 35 -40 11 -53 44 -103 78 -121 23 -12 39 -13 82 -5 29 6 168 10 308 9 140 -1 296 2 347 6 90 7 92 7 129 -21 30 -23 48 -29 88 -29 60 0 60 1 125 -125 157 -306 194 -696 93 -990 -24 -69 -92 -204 -126 -249 -14 -19 -24 -36 -22 -38 7 -8 158 52 281 112 124 60 303 171 373 232 l33 28 -36 50 c-77 107 -250 481 -313 675 -22 67 -32 123 -36 190 l-6 95 20 -89 c27 -124 69 -251 141 -418 75 -177 191 -404 228 -448 l28 -34 40 32 c22 17 79 73 127 123 309 325 499 701 577 1146 31 172 33 501 6 668 -75 454 -269 848 -576 1168 -119 123 -218 206 -363 303 -116 78 -354 202 -365 190 -11 -10 24 -163 51 -222 14 -31 79 -138 145 -238 134 -205 258 -421 301 -523 41 -99 78 -248 86 -350 11 -153 -27 -346 -96 -483 -31 -61 -133 -202 -173 -238 -44 -41 -41 -5 5 51 106 125 150 204 191 332 56 178 56 361 1 552 -44 153 -145 343 -345 649 -66 100 -130 206 -144 237 -27 59 -55 171 -55 224 0 29 -4 33 -57 53 -280 105 -626 148 -938 119z m489 -1303 c23 -80 23 -82 -21 -70 -18 5 -22 14 -25 65 -2 50 0 59 14 59 11 0 21 -16 32 -54z m27 -353 c23 -42 23 -43 11 -207 -8 -115 -16 -173 -26 -189 -16 -23 -75 -72 -80 -65 -2 1 2 130 7 286 l10 282 28 -32 c15 -18 37 -52 50 -75z m-1550 -88 c20 -44 44 -107 53 -140 15 -60 37 -217 31 -223 -8 -8 -45 69 -45 95 0 53 -39 185 -80 269 -22 46 -40 93 -40 106 l1 23 21 -25 c12 -14 38 -61 59 -105z m79 -559 c0 -6 -7 -51 -15 -100 -10 -63 -20 -96 -35 -110 -25 -25 -25 -21 -5 99 8 50 18 106 21 125 5 33 7 34 20 15 8 -10 14 -24 14 -29z m2171 -94 c-36 -71 -51 -154 -51 -283 0 -67 -2 -120 -4 -118 -3 2 -9 60 -14 127 -11 139 -1 204 44 294 21 42 28 49 35 35 7 -11 4 -28 -10 -55z m-1253 -4 c22 -28 33 -97 22 -139 -12 -45 -52 -89 -81 -89 -40 0 -51 160 -14 216 17 26 56 32 73 12z m434 -48 c30 -23 39 -60 27 -105 -9 -30 -45 -65 -68 -65 -26 0 -42 131 -21 171 14 24 31 24 62 -1z"/>
</g>
<g id="layer105" fill="#f4926d" stroke="none">
<path d="M0 2820 l0 -2820 2820 0 2820 0 0 2820 0 2820 -2820 0 -2820 0 0 -2820z m3150 2155 c973 -151 1730 -937 1841 -1914 15 -138 7 -486 -16 -605 -98 -527 -355 -979 -735 -1296 -330 -275 -703 -445 -1107 -505 -213 -32 -528 -23 -738 20 -662 135 -1216 556 -1519 1155 -157 309 -224 578 -233 930 -6 225 7 356 51 550 123 540 472 1035 946 1343 277 179 627 301 970 337 119 12 415 4 540 -15z"/>
<path d="M2539 4945 c-123 -17 -396 -82 -417 -100 -2 -2 11 -31 28 -65 44 -87 128 -166 330 -309 195 -140 313 -246 405 -369 53 -70 155 -246 155 -266 0 -3 -11 -6 -24 -6 -14 0 -34 -12 -48 -29 -23 -27 -25 -37 -26 -157 -1 -71 -7 -302 -13 -513 l-12 -384 23 -19 c32 -26 79 -22 146 12 32 16 60 30 61 30 1 0 9 -25 18 -56 9 -30 30 -88 48 -128 29 -66 32 -79 29 -159 l-3 -87 -49 0 -48 0 10 37 c35 128 -54 263 -174 263 -114 0 -178 -119 -145 -272 l8 -38 -75 0 -75 0 16 46 c28 82 2 220 -50 262 -12 11 -10 21 17 75 17 34 32 64 34 66 1 3 8 -1 14 -7 16 -16 53 -15 67 2 13 16 28 550 23 821 -2 126 -5 152 -19 163 -24 17 -57 15 -76 -6 -15 -16 -17 -52 -17 -295 0 -152 -3 -277 -7 -277 -5 0 -24 28 -43 61 -21 37 -45 65 -60 71 -17 6 -21 11 -12 17 10 6 10 10 -1 19 -9 8 -16 45 -21 112 -11 153 -34 291 -53 312 -24 27 -68 23 -92 -8 -17 -22 -28 -61 -56 -200 -5 -21 -10 -19 -112 32 -60 29 -202 85 -318 124 -258 87 -354 133 -438 210 -97 90 -156 230 -157 373 0 37 -4 56 -10 52 -6 -4 -7 -11 -4 -17 4 -6 2 -8 -3 -5 -20 12 -185 -183 -286 -335 -59 -90 -187 -327 -187 -346 0 -8 21 -12 59 -12 99 0 230 -28 310 -66 86 -40 201 -119 201 -138 0 -27 -14 -23 -73 21 -126 93 -214 125 -392 144 -99 10 -118 10 -126 -2 -29 -44 -103 -332 -125 -485 -23 -159 -23 -449 0 -599 108 -698 515 -1276 1128 -1600 104 -54 323 -145 352 -145 24 0 39 74 40 195 1 142 -24 227 -92 317 -40 53 -76 82 -232 187 -102 69 -210 151 -241 182 -105 106 -147 233 -134 402 10 123 25 98 35 -55 15 -241 68 -311 397 -523 174 -112 250 -204 288 -346 19 -70 19 -249 1 -319 -8 -30 -13 -56 -12 -58 9 -8 238 -54 339 -67 180 -23 201 -21 231 17 35 48 101 183 122 253 27 92 23 220 -11 320 -57 171 -131 256 -400 457 -55 41 -128 105 -162 141 -54 59 -71 87 -136 224 -23 49 17 163 78 223 19 19 35 41 35 49 0 8 3 11 6 8 4 -3 15 -2 25 4 16 8 20 5 25 -18 12 -56 17 -69 36 -101 30 -50 66 -64 130 -52 29 6 168 10 308 9 140 -1 296 2 347 6 90 7 92 7 129 -21 31 -24 47 -29 92 -29 l55 0 48 -84 c58 -100 102 -219 135 -361 31 -133 43 -370 24 -487 -24 -153 -85 -308 -164 -417 -19 -28 -34 -52 -32 -54 7 -6 251 100 346 150 98 53 310 189 329 212 8 9 0 28 -32 72 -58 79 -109 176 -194 369 -114 256 -132 317 -153 500 -40 348 -37 392 27 520 24 46 27 48 35 29 7 -16 5 -32 -10 -61 -77 -150 -70 -415 18 -681 66 -199 256 -608 319 -682 l28 -34 40 32 c22 17 79 73 127 123 309 325 499 701 577 1146 31 172 33 501 6 668 -75 454 -269 848 -576 1168 -119 123 -218 206 -363 303 -116 78 -354 202 -365 190 -11 -10 24 -163 51 -222 14 -31 79 -138 145 -238 134 -205 258 -421 301 -523 41 -99 78 -248 86 -350 11 -150 -27 -345 -93 -478 -46 -92 -193 -282 -207 -268 -14 14 -4 38 35 81 177 202 258 470 220 733 -14 95 -61 249 -99 324 -55 109 -190 338 -283 476 -146 219 -189 318 -189 436 l0 50 -132 41 c-243 76 -420 103 -680 101 -90 -1 -206 -7 -259 -14z m547 -1233 c11 -7 46 -123 40 -130 -3 -2 -18 -1 -35 3 -29 6 -31 9 -31 55 0 27 -3 55 -6 64 -6 17 12 22 32 8z m48 -412 c25 -45 25 -46 15 -185 -12 -181 -20 -206 -70 -246 -22 -17 -41 -30 -43 -28 -1 2 2 131 7 287 l10 282 28 -32 c15 -18 39 -53 53 -78z m-1553 -85 c20 -44 44 -107 53 -140 16 -63 37 -217 31 -223 -9 -9 -45 66 -45 94 0 54 -39 185 -80 270 -22 46 -40 93 -40 106 l1 23 21 -25 c12 -14 38 -61 59 -105z m66 -646 c-11 -75 -21 -107 -36 -123 -26 -25 -26 -21 -6 99 8 50 18 105 21 124 5 31 7 32 21 18 15 -14 15 -25 0 -118z m931 -11 c22 -28 33 -97 22 -139 -12 -45 -52 -89 -81 -89 -40 0 -51 160 -14 216 17 26 56 32 73 12z m434 -48 c30 -23 39 -60 27 -105 -9 -30 -45 -65 -68 -65 -26 0 -42 131 -21 171 14 24 31 24 62 -1z"/>
</g>
<g id="layer106" fill="#79c6cc" stroke="none">
<path d="M0 2820 l0 -2820 2820 0 2820 0 0 2820 0 2820 -2820 0 -2820 0 0 -2820z m3150 2155 c973 -151 1730 -937 1841 -1914 15 -138 7 -486 -16 -605 -98 -527 -355 -979 -735 -1296 -330 -275 -703 -445 -1107 -505 -213 -32 -528 -23 -738 20 -662 135 -1216 556 -1519 1155 -157 309 -224 578 -233 930 -8 303 26 517 121 785 115 321 279 578 522 820 358 356 815 572 1324 625 119 12 415 4 540 -15z"/>
<path d="M2539 4945 c-123 -17 -396 -82 -417 -100 -2 -2 11 -31 28 -65 44 -87 128 -166 330 -309 195 -140 313 -246 405 -369 53 -70 155 -246 155 -266 0 -3 -11 -6 -24 -6 -14 0 -34 -12 -48 -29 -23 -27 -25 -37 -26 -157 -1 -71 -7 -302 -13 -513 l-12 -384 23 -19 c32 -26 79 -22 146 12 32 16 60 30 61 30 1 0 9 -25 18 -56 9 -30 30 -88 48 -128 29 -66 32 -79 29 -159 l-3 -87 -49 0 -48 0 10 37 c35 128 -54 263 -174 263 -114 0 -178 -119 -145 -272 l8 -38 -75 0 -75 0 14 41 c64 180 -82 378 -224 305 -44 -23 -90 -82 -102 -132 l-12 -46 -76 7 c-42 4 -79 9 -83 12 -5 2 -8 26 -8 53 0 86 -29 275 -64 412 -75 297 -212 533 -358 613 -46 26 -63 30 -130 30 -69 0 -80 -3 -119 -30 -55 -39 -105 -105 -119 -155 l-11 -40 -27 25 c-41 39 -126 93 -185 119 -70 31 -121 42 -250 57 -93 11 -110 11 -118 -2 -29 -44 -103 -332 -125 -485 -23 -159 -23 -449 0 -599 108 -698 516 -1277 1128 -1600 122 -64 321 -144 359 -145 15 0 30 100 30 194 1 165 -33 263 -120 354 -27 28 -123 99 -212 158 -191 124 -275 203 -319 296 -42 90 -54 159 -45 272 8 105 20 117 30 31 14 -109 103 -246 178 -274 40 -15 93 -14 126 3 33 18 86 76 96 105 9 30 17 26 43 -23 62 -116 152 -123 181 -14 11 43 26 215 37 419 l6 106 76 -5 c43 -2 79 -6 80 -7 2 -2 8 -23 13 -46 13 -57 44 -106 79 -124 23 -12 39 -13 82 -5 29 6 168 10 308 9 140 -1 296 2 347 6 90 7 92 7 129 -21 31 -24 47 -29 92 -29 l55 0 48 -84 c58 -100 102 -219 135 -361 31 -133 43 -370 24 -487 -24 -153 -85 -308 -164 -417 -19 -28 -34 -52 -32 -54 7 -6 251 100 346 150 98 53 310 189 329 212 8 9 0 28 -32 72 -58 79 -109 176 -194 369 -114 256 -132 317 -153 500 -40 348 -37 392 27 520 24 46 27 48 35 29 7 -16 5 -32 -10 -61 -77 -150 -70 -415 18 -681 66 -199 256 -608 319 -682 l28 -34 40 32 c22 17 79 73 127 123 309 325 499 701 577 1146 31 172 33 501 6 668 -75 454 -269 848 -576 1168 -119 123 -218 206 -363 303 -116 78 -354 202 -365 190 -11 -10 24 -163 51 -222 14 -31 79 -138 145 -238 134 -205 258 -421 301 -523 41 -99 78 -248 86 -350 11 -150 -27 -345 -93 -478 -46 -92 -193 -282 -207 -268 -14 14 -4 38 35 81 177 202 258 470 220 733 -14 95 -61 249 -99 324 -55 109 -190 338 -283 476 -146 219 -189 318 -189 436 l0 50 -132 41 c-243 76 -420 103 -680 101 -90 -1 -206 -7 -259 -14z m547 -1233 c11 -7 46 -123 40 -130 -3 -2 -18 -1 -35 3 -29 6 -31 9 -31 55 0 27 -3 55 -6 64 -6 17 12 22 32 8z m-1370 -216 c148 -69 298 -386 348 -736 18 -127 28 -230 23 -230 -15 0 -126 44 -156 62 -75 45 -164 125 -224 201 -78 99 -86 114 -93 179 -7 69 -61 230 -91 274 -27 41 -29 71 -8 141 18 61 48 101 89 119 42 18 54 17 112 -10z m1418 -196 c25 -45 25 -46 15 -185 -12 -181 -20 -206 -70 -246 -22 -17 -41 -30 -43 -28 -1 2 2 131 7 287 l10 282 28 -32 c15 -18 39 -53 53 -78z m-1527 -327 c-4 -3 -10 -3 -14 0 -3 4 0 7 7 7 7 0 10 -3 7 -7z m90 -341 c106 -105 210 -170 328 -203 l60 -16 -1 -169 c-1 -93 -4 -191 -8 -218 l-8 -49 -90 170 c-137 258 -198 328 -288 328 -40 0 -54 -5 -81 -30 -25 -24 -30 -26 -25 -10 11 39 36 198 36 231 0 19 2 34 5 34 2 0 35 -31 72 -68z m881 -74 c22 -28 33 -97 22 -139 -12 -45 -52 -89 -81 -89 -40 0 -51 160 -14 216 17 26 56 32 73 12z m434 -48 c30 -23 39 -60 27 -105 -9 -30 -45 -65 -68 -65 -26 0 -42 131 -21 171 14 24 31 24 62 -1z m-1269 -192 c19 -24 53 -76 76 -116 36 -65 41 -81 41 -138 0 -75 -18 -126 -53 -149 -20 -13 -30 -14 -46 -6 -33 18 -68 72 -92 141 -40 116 -24 310 25 310 8 0 30 -19 49 -42z"/>
</g>
<g id="layer107" fill="#fdaa9e" stroke="none">
<path d="M0 2820 l0 -2820 2820 0 2820 0 0 2820 0 2820 -2820 0 -2820 0 0 -2820z m3048 2169 c1018 -110 1828 -914 1943 -1928 15 -138 7 -486 -16 -605 -58 -312 -162 -579 -322 -826 -151 -232 -318 -406 -573 -597 -224 -167 -566 -310 -880 -367 -243 -45 -559 -41 -810 10 -655 133 -1212 557 -1514 1154 -157 309 -224 578 -233 930 -8 303 26 517 121 785 115 321 279 578 522 820 360 358 822 576 1334 628 81 9 338 6 428 -4z"/>
<path d="M3640 4783 c1 -41 31 -159 55 -210 14 -31 78 -137 144 -237 134 -205 258 -421 301 -523 140 -334 108 -688 -86 -954 -50 -68 -120 -149 -129 -149 -3 0 -5 6 -5 13 0 29 -63 137 -96 166 -42 38 -73 39 -112 6 -77 -65 -96 -242 -66 -610 4 -51 3 -76 -3 -70 -10 10 -74 153 -133 298 -38 93 -69 132 -115 147 -90 30 -155 -80 -155 -262 l0 -58 -49 0 -49 0 10 37 c35 128 -54 263 -174 263 -114 0 -178 -119 -145 -272 l8 -38 -75 0 -75 0 14 41 c64 180 -82 378 -224 305 -44 -23 -90 -82 -102 -132 l-12 -46 -76 7 c-42 4 -79 9 -83 12 -5 2 -8 26 -8 53 0 86 -29 275 -64 412 -75 297 -212 533 -358 613 -46 26 -63 30 -130 30 -69 0 -80 -3 -119 -30 -55 -39 -105 -105 -119 -155 l-11 -40 -27 25 c-41 39 -126 93 -185 119 -70 31 -121 42 -250 57 -93 11 -110 11 -118 -2 -29 -44 -103 -332 -125 -485 -23 -159 -23 -449 0 -599 108 -698 516 -1277 1128 -1600 122 -64 321 -144 359 -145 15 0 30 100 30 194 1 165 -33 263 -120 354 -27 28 -123 99 -212 158 -191 124 -275 203 -319 296 -42 90 -54 159 -45 272 8 105 20 117 30 31 14 -109 103 -246 178 -274 40 -15 93 -14 126 3 33 18 86 76 96 105 9 30 17 26 43 -23 62 -116 152 -123 181 -14 11 43 26 215 37 419 l6 106 76 -5 c43 -2 79 -6 80 -7 2 -2 8 -23 13 -46 13 -57 44 -106 79 -124 23 -12 39 -13 82 -5 29 6 168 10 308 9 140 -1 296 2 347 6 90 7 92 7 129 -21 31 -24 46 -29 91 -28 36 1 60 7 73 19 11 10 22 16 23 14 2 -2 34 -62 71 -134 66 -127 110 -185 142 -185 8 0 27 12 41 26 24 24 25 30 19 92 -28 269 -36 387 -36 523 -1 155 6 239 19 239 4 0 24 -37 45 -82 l38 -81 -21 -46 c-76 -162 -69 -413 19 -679 66 -199 256 -608 319 -682 l28 -34 40 32 c22 17 79 73 127 123 309 325 499 701 577 1146 31 172 33 501 6 668 -75 454 -269 848 -576 1168 -119 123 -218 207 -363 303 -97 65 -336 194 -360 194 -4 0 -8 -8 -8 -17z m-1924 -1287 c148 -69 298 -386 348 -736 18 -127 28 -230 23 -230 -15 0 -126 44 -156 62 -75 45 -164 125 -224 201 -78 99 -86 114 -93 179 -7 69 -61 230 -91 274 -27 41 -29 71 -8 141 18 61 48 101 89 119 42 18 54 17 112 -10z m-109 -523 c-4 -3 -10 -3 -14 0 -3 4 0 7 7 7 7 0 10 -3 7 -7z m90 -341 c106 -105 210 -170 328 -203 l60 -16 -1 -169 c-1 -93 -4 -191 -8 -218 l-8 -49 -90 170 c-137 258 -198 328 -288 328 -40 0 -54 -5 -81 -30 -25 -24 -30 -26 -25 -10 11 39 36 198 36 231 0 19 2 34 5 34 2 0 35 -31 72 -68z m881 -74 c22 -28 33 -97 22 -139 -12 -45 -52 -89 -81 -89 -40 0 -51 160 -14 216 17 26 56 32 73 12z m434 -48 c30 -23 39 -60 27 -105 -9 -30 -45 -65 -68 -65 -26 0 -42 131 -21 171 14 24 31 24 62 -1z m413 -95 c21 -57 24 -76 16 -98 -15 -38 -46 -35 -68 6 -19 34 -25 155 -10 192 8 19 9 19 22 -5 8 -14 26 -57 40 -95z m-1682 -97 c19 -24 53 -76 76 -116 36 -65 41 -81 41 -138 0 -75 -18 -126 -53 -149 -20 -13 -30 -14 -46 -6 -33 18 -68 72 -92 141 -40 116 -24 310 25 310 8 0 30 -19 49 -42z"/>
<path d="M2967 3801 c-22 -26 -24 -37 -25 -157 -1 -71 -7 -302 -13 -513 l-12 -384 23 -19 c72 -58 247 45 313 184 72 152 50 361 -53 496 -22 29 -40 54 -40 56 0 2 20 7 44 10 24 4 64 20 89 37 131 87 85 242 -87 295 -28 8 -88 17 -133 19 -80 4 -82 4 -106 -24z m173 -97 c43 -9 78 -24 95 -40 26 -24 26 -26 10 -44 -25 -27 -80 -43 -132 -37 -24 2 -45 6 -47 8 -8 9 -11 129 -4 129 5 0 40 -7 78 -16z m-7 -404 c78 -143 53 -346 -53 -430 -22 -18 -42 -31 -44 -29 -1 2 2 131 7 287 l10 282 28 -32 c15 -18 39 -53 52 -78z"/>
<path d="M2411 3764 c-11 -14 -27 -60 -36 -102 -9 -42 -20 -95 -26 -117 -15 -62 -106 -560 -119 -653 -11 -75 -11 -85 5 -102 21 -23 67 -26 84 -6 6 7 20 69 31 137 33 200 81 443 89 452 10 10 15 -23 36 -238 8 -88 20 -201 25 -252 5 -50 14 -101 20 -112 16 -31 58 -38 82 -13 20 20 20 21 4 208 -9 104 -21 227 -26 274 -5 47 -16 155 -25 240 -20 198 -33 271 -52 293 -24 26 -68 22 -92 -9z"/>
</g>
<g id="layer108" fill="#ffe6a3" stroke="none">
<path d="M0 2820 l0 -2820 2820 0 2820 0 0 2820 0 2820 -2820 0 -2820 0 0 -2820z m3048 2169 c1018 -110 1828 -914 1943 -1928 15 -138 7 -486 -16 -605 -58 -312 -162 -579 -322 -826 -151 -232 -318 -406 -573 -597 -224 -167 -566 -310 -880 -367 -243 -45 -559 -41 -810 10 -699 142 -1284 613 -1570 1264 -69 157 -126 351 -162 550 -21 118 -18 558 5 680 59 312 177 612 337 850 125 187 308 385 474 514 329 257 727 416 1146 459 81 9 338 6 428 -4z"/>
<path d="M3640 4783 c1 -41 31 -159 55 -210 14 -31 78 -137 144 -237 134 -205 258 -421 301 -523 140 -334 108 -688 -86 -954 -50 -68 -120 -149 -129 -149 -3 0 -5 6 -5 13 0 29 -63 137 -96 166 -42 38 -73 39 -112 6 -77 -65 -96 -242 -66 -610 4 -51 3 -76 -3 -70 -10 10 -74 153 -133 298 -38 93 -69 132 -115 147 -90 30 -155 -80 -155 -262 l0 -58 -49 0 -49 0 10 37 c35 128 -54 263 -174 263 -114 0 -178 -119 -145 -272 l8 -38 -75 0 -75 0 14 41 c64 180 -82 378 -224 305 -44 -23 -90 -82 -102 -132 l-12 -46 -76 7 c-42 4 -79 9 -83 12 -5 2 -8 26 -8 53 0 86 -29 275 -64 412 -75 297 -212 533 -358 613 -46 26 -63 30 -130 30 -69 0 -80 -3 -119 -30 -106 -75 -144 -169 -136 -340 4 -89 11 -127 36 -199 55 -158 141 -295 264 -420 108 -109 212 -173 332 -207 l60 -16 -1 -169 c-1 -93 -4 -191 -8 -218 l-8 -49 -90 170 c-137 258 -198 328 -288 328 -40 0 -54 -5 -81 -30 -71 -67 -94 -195 -66 -356 47 -263 234 -384 365 -235 16 19 33 44 37 55 9 30 17 26 43 -23 62 -116 152 -123 181 -14 11 43 26 215 37 419 l6 106 76 -5 c43 -2 79 -6 80 -7 2 -2 8 -23 13 -46 13 -57 44 -106 79 -124 23 -12 39 -13 82 -5 29 6 168 10 308 9 140 -1 296 2 347 6 90 7 92 7 129 -21 31 -24 46 -29 91 -28 36 1 60 7 73 19 11 10 22 16 23 14 2 -2 34 -62 71 -134 66 -127 110 -185 142 -185 8 0 27 12 41 26 24 24 25 30 19 92 -28 269 -36 387 -36 523 -1 155 6 239 19 239 4 0 24 -37 45 -82 l38 -81 -21 -46 c-76 -162 -69 -413 19 -679 66 -199 256 -608 319 -682 l28 -34 40 32 c22 17 79 73 127 123 309 325 499 701 577 1146 31 172 33 501 6 668 -75 454 -269 848 -576 1168 -119 123 -218 207 -363 303 -97 65 -336 194 -360 194 -4 0 -8 -8 -8 -17z m-1924 -1287 c148 -69 298 -386 348 -736 18 -127 28 -230 23 -230 -15 0 -126 44 -156 62 -219 132 -411 429 -427 664 -9 122 30 219 100 250 42 18 54 17 112 -10z m862 -938 c22 -28 33 -97 22 -139 -12 -45 -52 -89 -81 -89 -40 0 -51 160 -14 216 17 26 56 32 73 12z m434 -48 c30 -23 39 -60 27 -105 -9 -30 -45 -65 -68 -65 -26 0 -42 131 -21 171 14 24 31 24 62 -1z m413 -95 c21 -57 24 -76 16 -98 -15 -38 -46 -35 -68 6 -19 34 -25 155 -10 192 8 19 9 19 22 -5 8 -14 26 -57 40 -95z m-1682 -97 c19 -24 53 -76 76 -116 36 -65 41 -81 41 -138 0 -75 -18 -126 -53 -149 -20 -13 -30 -14 -46 -6 -33 18 -68 72 -92 141 -40 116 -24 310 25 310 8 0 30 -19 49 -42z"/>
</g>
<g id="layer109" fill="#f7f8f8" stroke="none">
<path d="M0 2820 l0 -2820 2820 0 2820 0 0 2820 0 2820 -2820 0 -2820 0 0 -2820z m3048 2169 c557 -60 1066 -328 1432 -754 268 -312 452 -723 505 -1130 17 -127 22 -382 10 -500 -73 -744 -532 -1409 -1203 -1744 -171 -85 -397 -160 -592 -195 -243 -45 -559 -41 -810 10 -699 142 -1284 613 -1570 1264 -69 157 -126 351 -162 550 -21 118 -18 558 5 680 59 312 177 612 337 850 125 187 308 385 474 514 329 257 727 416 1146 459 81 9 338 6 428 -4z"/>
<path d="M2967 3801 c-22 -26 -24 -37 -25 -157 -1 -71 -7 -302 -13 -513 l-12 -384 23 -19 c72 -58 247 45 313 184 72 152 50 361 -53 496 -22 29 -40 54 -40 56 0 2 20 7 44 10 24 4 64 20 89 37 131 87 85 242 -87 295 -28 8 -88 17 -133 19 -80 4 -82 4 -106 -24z m173 -97 c43 -9 78 -24 95 -40 26 -24 27 -26 9 -45 -24 -26 -79 -41 -139 -37 l-50 3 -3 68 c-2 44 1 67 8 67 6 0 42 -7 80 -16z m-7 -404 c78 -143 53 -346 -53 -430 -22 -18 -42 -31 -44 -29 -1 2 2 131 7 287 l10 282 28 -32 c15 -18 39 -53 52 -78z"/>
<path d="M3506 3820 c-31 -6 -59 -18 -75 -35 l-26 -25 -9 -502 -9 -501 21 -17 c32 -26 118 -35 148 -15 47 31 19 105 -40 105 -19 0 -19 7 -13 218 4 119 7 259 7 311 l0 94 36 -6 c71 -12 103 66 42 103 -18 11 -41 20 -50 20 -15 0 -18 10 -18 70 l0 70 58 0 c64 0 92 18 92 57 0 48 -68 70 -164 53z"/>
<path d="M3891 3800 c-64 -40 -107 -113 -144 -240 -36 -124 -43 -192 -22 -213 20 -21 68 -22 84 -3 6 8 16 40 21 71 20 121 66 240 107 278 19 16 20 16 36 0 25 -29 37 -70 37 -132 0 -90 -41 -162 -150 -262 -112 -103 -131 -147 -105 -237 26 -85 104 -135 187 -118 43 8 68 33 68 66 0 39 -22 54 -71 47 -49 -6 -79 17 -79 62 0 23 13 40 66 85 116 99 161 165 190 278 27 106 4 214 -60 285 -35 38 -48 46 -86 50 -34 3 -53 -1 -79 -17z"/>
<path d="M2411 3764 c-11 -14 -27 -60 -36 -102 -9 -42 -20 -95 -26 -117 -15 -62 -106 -560 -119 -653 -11 -75 -11 -85 5 -102 21 -23 67 -26 84 -6 6 7 22 80 36 162 32 195 82 454 87 460 5 4 16 -89 47 -422 11 -105 24 -201 30 -212 17 -32 58 -39 83 -14 20 20 20 21 4 208 -9 104 -21 227 -26 274 -5 47 -16 155 -25 240 -20 198 -33 271 -52 293 -24 26 -68 22 -92 -9z"/>
<path d="M2718 3753 c-13 -15 -16 -87 -22 -485 l-7 -466 22 -21 c26 -24 61 -27 78 -7 13 16 28 550 23 821 -2 126 -5 152 -19 163 -24 17 -57 15 -75 -5z"/>
<path d="M1577 3620 c-73 -23 -146 -107 -173 -198 -26 -90 -15 -252 25 -366 55 -158 141 -295 264 -420 108 -109 212 -173 332 -207 l60 -16 -1 -169 c-1 -93 -4 -191 -8 -218 l-8 -49 -90 170 c-137 258 -198 328 -288 328 -40 0 -54 -5 -81 -30 -71 -67 -94 -195 -66 -356 47 -263 234 -384 365 -235 16 19 33 44 37 55 9 30 17 26 43 -23 62 -116 152 -123 181 -14 11 43 26 215 37 419 l6 106 76 -5 c43 -2 79 -6 80 -7 2 -2 8 -23 13 -46 13 -57 44 -106 79 -124 23 -12 39 -13 82 -5 29 6 168 10 308 9 140 -1 296 2 347 6 90 7 92 7 129 -21 31 -24 46 -29 91 -28 36 1 60 7 73 19 11 10 22 16 23 14 2 -2 34 -62 71 -134 66 -127 110 -185 142 -185 8 0 27 12 41 26 24 24 25 30 19 87 -4 34 -11 107 -16 162 -6 55 -12 122 -15 149 -8 70 -7 366 1 415 4 22 10 41 13 41 8 0 81 -153 81 -169 0 -13 33 -31 58 -31 25 0 52 31 52 59 0 13 -8 40 -19 60 -10 20 -33 66 -50 103 -34 73 -88 128 -126 128 -33 0 -80 -42 -98 -89 -37 -92 -44 -266 -21 -546 4 -51 3 -76 -3 -70 -10 10 -74 153 -133 298 -38 93 -69 132 -115 147 -90 30 -155 -80 -155 -262 l0 -58 -49 0 -49 0 10 37 c35 128 -54 263 -174 263 -114 0 -178 -119 -145 -272 l8 -38 -75 0 -75 0 14 41 c64 180 -82 378 -224 305 -44 -23 -90 -82 -102 -132 l-12 -46 -76 7 c-42 4 -79 9 -83 12 -5 2 -8 26 -8 53 0 86 -29 275 -64 412 -74 296 -213 534 -356 612 -57 31 -151 43 -203 26z m139 -124 c148 -69 298 -386 348 -736 18 -127 28 -230 23 -230 -15 0 -126 44 -156 62 -219 132 -411 429 -427 664 -9 122 30 219 100 250 42 18 54 17 112 -10z m862 -938 c22 -28 33 -97 22 -139 -12 -45 -52 -89 -81 -89 -40 0 -51 160 -14 216 17 26 56 32 73 12z m434 -48 c30 -23 39 -60 27 -105 -9 -30 -45 -65 -68 -65 -26 0 -42 131 -21 171 14 24 31 24 62 -1z m413 -95 c21 -57 24 -76 16 -98 -15 -38 -46 -35 -68 6 -19 34 -25 155 -10 192 8 19 9 19 22 -5 8 -14 26 -57 40 -95z m-1682 -97 c19 -24 53 -76 76 -116 36 -65 41 -81 41 -138 0 -75 -18 -126 -53 -149 -20 -13 -30 -14 -46 -6 -33 18 -68 72 -92 141 -40 116 -24 310 25 310 8 0 30 -19 49 -42z"/>
</g>


</svg>