<svg id="svg" xmlns="http://www.w3.org/2000/svg" xmlns:xlink="http://www.w3.org/1999/xlink" width="400" height="400" viewBox="0, 0, 400,400"><g id="svgg"><path id="path0" d="M171.600 14.411 C 168.520 14.755,163.480 15.655,160.400 16.411 C 157.320 17.167,154.254 17.851,153.586 17.931 C 152.918 18.011,151.928 18.350,151.386 18.685 C 150.844 19.020,150.400 19.122,150.400 18.912 C 150.400 18.701,147.870 19.760,144.779 21.264 C 141.687 22.769,138.807 24.000,138.379 24.000 C 137.950 24.000,137.600 24.360,137.600 24.800 C 137.600 25.240,137.330 25.520,137.000 25.422 C 136.225 25.192,132.039 27.875,130.074 29.861 C 128.340 31.614,127.710 34.329,123.547 58.000 C 123.315 59.320,122.782 61.444,122.363 62.719 C 121.943 63.995,121.600 65.885,121.600 66.919 C 121.600 67.954,121.240 68.800,120.800 68.800 C 120.006 68.800,119.384 68.216,114.834 63.201 C 113.533 61.767,112.333 61.002,112.166 61.501 C 112.000 62.001,111.548 62.215,111.162 61.977 C 110.777 61.738,109.710 63.016,108.792 64.815 C 107.874 66.614,105.829 69.777,104.246 71.843 C 102.664 73.910,100.967 76.500,100.475 77.600 C 99.983 78.700,98.629 81.070,97.465 82.866 C 93.024 89.721,88.669 115.270,91.151 119.908 C 91.532 120.620,92.057 123.362,92.319 126.001 C 92.580 128.641,92.969 131.700,93.182 132.800 C 95.039 142.361,95.751 146.887,95.474 147.367 C 95.293 147.680,95.507 148.580,95.949 149.367 C 96.883 151.033,99.943 166.938,100.319 172.086 C 100.460 174.019,100.774 176.140,101.015 176.800 C 101.652 178.537,104.888 192.043,105.233 194.400 C 105.592 196.851,107.192 201.128,109.050 204.600 C 109.815 206.030,110.226 207.200,109.963 207.200 C 109.701 207.200,110.055 207.769,110.750 208.464 C 111.446 209.160,111.810 210.060,111.560 210.464 C 111.310 210.869,111.448 211.200,111.866 211.200 C 112.284 211.200,112.837 212.010,113.095 213.000 C 113.353 213.990,114.832 216.170,116.382 217.845 C 117.932 219.519,119.189 221.139,119.175 221.445 C 119.161 221.750,118.614 221.292,117.960 220.427 C 116.846 218.954,116.804 219.018,117.285 221.427 C 117.633 223.165,117.493 224.000,116.853 224.000 C 116.332 224.000,116.166 223.579,116.484 223.064 C 116.864 222.449,116.638 222.291,115.823 222.604 C 115.141 222.865,113.879 222.586,113.019 221.983 C 108.239 218.635,100.708 219.055,97.562 222.845 C 95.570 225.246,96.484 233.550,98.600 232.269 C 98.930 232.069,99.205 232.377,99.211 232.953 C 99.217 233.529,99.423 234.748,99.668 235.661 C 99.972 236.795,99.465 237.938,98.071 239.261 C 95.295 241.895,95.319 245.501,98.129 248.061 C 99.300 249.127,99.958 249.460,99.591 248.800 C 99.111 247.935,99.372 247.991,100.525 249.000 C 102.335 250.583,111.200 251.042,111.200 249.553 C 111.200 249.087,111.549 248.921,111.975 249.184 C 112.401 249.448,114.776 249.134,117.254 248.487 C 122.294 247.171,124.619 247.490,123.122 249.293 C 122.617 249.902,122.453 250.400,122.757 250.400 C 123.060 250.400,122.631 251.390,121.802 252.600 C 120.973 253.810,118.213 258.940,115.668 264.000 C 113.123 269.060,110.194 274.640,109.160 276.400 C 108.126 278.160,106.673 280.733,105.931 282.118 C 104.843 284.148,104.177 284.573,102.491 284.311 C 101.341 284.133,98.780 283.794,96.800 283.558 C 94.820 283.322,92.760 282.980,92.223 282.798 C 89.683 281.940,88.630 284.884,89.096 291.536 C 89.669 299.713,89.719 300.000,90.581 300.000 C 90.973 300.000,91.072 300.360,90.800 300.800 C 90.528 301.240,90.823 301.600,91.455 301.600 C 92.087 301.600,93.098 302.230,93.702 303.000 C 94.697 304.269,94.669 304.297,93.400 303.302 C 92.630 302.698,92.000 302.550,92.000 302.974 C 92.000 303.397,92.900 304.153,94.000 304.654 C 96.312 305.708,96.643 308.436,94.875 311.856 C 93.879 313.781,92.444 319.721,91.554 325.600 C 91.388 326.700,91.857 329.580,92.596 332.000 C 93.336 334.420,93.900 336.874,93.850 337.453 C 93.801 338.033,93.962 338.305,94.208 338.058 C 94.722 337.544,97.185 340.796,97.194 342.000 C 97.197 342.440,97.560 342.831,98.000 342.869 C 99.736 343.019,101.567 344.207,101.136 344.904 C 100.886 345.308,100.978 345.588,101.341 345.525 C 102.954 345.245,104.054 345.665,103.606 346.391 C 103.325 346.844,103.647 346.978,104.358 346.705 C 105.041 346.443,105.600 346.537,105.601 346.914 C 105.601 347.291,106.548 347.655,107.705 347.722 C 108.862 347.789,110.066 348.260,110.380 348.768 C 110.729 349.332,111.858 349.494,113.276 349.182 C 115.047 348.792,115.314 348.874,114.400 349.523 C 111.430 351.633,128.599 350.547,131.982 348.411 C 133.715 347.317,135.596 346.327,136.163 346.211 C 136.730 346.095,137.600 345.483,138.095 344.851 C 138.771 343.990,138.971 347.425,138.898 358.595 L 138.800 373.488 141.200 376.113 C 142.520 377.557,143.043 378.393,142.362 377.969 C 141.681 377.546,142.041 378.008,143.162 378.996 C 145.182 380.776,146.726 381.193,150.200 380.894 C 151.190 380.809,152.000 381.041,152.000 381.409 C 152.000 381.777,153.260 381.932,154.800 381.752 C 156.340 381.572,157.600 381.772,157.600 382.197 C 157.600 382.625,160.099 382.946,163.200 382.918 C 166.280 382.890,168.800 382.582,168.800 382.233 C 168.800 381.885,169.181 381.600,169.647 381.600 C 170.113 381.600,170.272 381.960,170.000 382.400 C 169.728 382.840,170.067 383.200,170.753 383.200 C 171.439 383.200,172.000 382.816,172.000 382.346 C 172.000 381.865,172.677 381.707,173.550 381.984 C 175.572 382.626,183.746 380.478,185.573 378.825 C 187.098 377.444,192.804 377.338,192.547 378.695 C 192.309 379.948,196.240 381.653,198.267 381.175 C 199.294 380.934,199.958 381.020,199.742 381.368 C 199.526 381.716,200.666 382.012,202.275 382.028 C 203.884 382.043,208.980 382.199,213.600 382.374 L 222.000 382.693 215.600 383.200 L 209.200 383.707 215.348 383.853 C 218.729 383.934,222.509 383.607,223.748 383.126 C 224.987 382.646,226.900 382.086,228.000 381.882 C 230.611 381.397,237.690 377.405,237.562 376.489 C 237.508 376.099,237.764 375.559,238.132 375.289 C 240.799 373.336,241.566 366.062,240.001 357.547 C 239.105 352.670,238.476 343.809,239.068 344.401 C 239.280 344.613,239.941 344.381,240.537 343.886 C 241.380 343.187,242.157 343.545,244.018 345.493 C 245.336 346.872,246.861 347.994,247.407 347.988 C 248.074 347.980,248.005 347.692,247.200 347.112 C 246.202 346.394,246.247 346.329,247.465 346.725 C 248.271 346.986,249.103 347.200,249.313 347.200 C 249.523 347.200,249.474 347.556,249.206 347.991 C 248.919 348.455,249.264 348.572,250.039 348.274 C 250.766 347.995,251.622 348.188,251.940 348.702 C 252.676 349.893,265.814 350.159,266.203 348.991 C 266.354 348.539,267.148 348.345,267.967 348.560 C 268.787 348.774,271.740 347.856,274.529 346.519 C 291.563 338.355,293.237 326.747,281.590 297.574 L 276.712 285.358 279.756 282.244 C 292.221 269.493,292.164 269.591,288.668 266.981 C 286.238 265.166,275.060 264.135,271.453 265.392 C 267.228 266.865,255.594 250.146,258.675 247.027 C 260.735 244.941,263.916 239.712,263.517 239.066 C 263.291 238.700,263.495 238.400,263.970 238.400 C 264.445 238.400,265.277 237.427,265.817 236.238 C 266.358 235.049,267.574 233.301,268.520 232.354 C 270.266 230.606,269.679 224.000,267.778 224.000 C 267.397 224.000,266.546 223.460,265.886 222.800 C 265.226 222.140,263.811 221.600,262.743 221.600 C 259.582 221.600,260.467 217.593,264.686 212.800 C 268.801 208.125,274.413 195.949,275.747 188.800 C 275.871 188.140,276.513 185.260,277.174 182.400 C 277.836 179.540,278.960 173.780,279.672 169.600 C 280.384 165.420,281.142 161.100,281.357 160.000 C 281.572 158.900,281.879 156.920,282.039 155.600 C 282.415 152.505,285.186 141.904,286.430 138.800 C 286.960 137.480,287.494 135.680,287.618 134.800 C 287.742 133.920,288.971 129.827,290.350 125.705 C 293.303 116.871,294.426 105.436,292.841 100.348 C 290.877 94.044,287.041 85.382,284.352 81.179 C 282.838 78.813,281.600 76.521,281.600 76.085 C 281.600 74.812,288.976 67.532,291.650 66.166 C 301.408 61.180,304.671 54.238,300.200 47.973 C 296.708 43.079,295.458 43.139,286.463 48.637 C 284.432 49.878,283.348 50.107,282.263 49.527 C 281.458 49.096,280.800 48.950,280.800 49.203 C 280.800 49.456,280.095 49.006,279.234 48.203 C 277.256 46.361,274.149 46.469,271.880 48.460 C 270.915 49.307,270.388 49.550,270.710 49.000 C 271.031 48.450,270.913 48.000,270.447 48.000 C 269.981 48.000,269.600 48.707,269.600 49.572 C 269.600 50.436,268.852 51.544,267.938 52.033 C 267.009 52.530,266.464 53.414,266.703 54.036 C 266.938 54.648,266.730 55.396,266.241 55.698 C 265.663 56.056,265.581 55.878,266.008 55.188 C 266.483 54.418,266.298 54.268,265.331 54.639 C 264.079 55.119,263.937 54.792,264.009 51.596 C 264.299 38.795,236.262 28.805,216.588 34.699 C 212.731 35.855,208.861 36.800,207.988 36.800 C 207.115 36.800,206.400 37.071,206.400 37.401 C 206.400 37.732,204.790 38.857,202.822 39.901 C 200.855 40.945,199.029 42.478,198.766 43.308 C 198.373 44.547,194.665 47.200,193.327 47.200 C 193.134 47.200,192.784 46.030,192.550 44.600 C 192.317 43.170,191.086 35.700,189.815 28.000 L 187.505 14.000 182.353 13.893 C 179.519 13.834,174.680 14.067,171.600 14.411 M179.200 21.980 C 179.200 21.997,179.537 23.185,179.949 24.621 C 180.413 26.241,180.413 27.055,179.949 26.768 C 178.880 26.108,179.019 26.930,180.441 29.680 C 181.124 31.000,181.460 32.782,181.187 33.640 C 180.914 34.501,181.063 35.200,181.521 35.200 C 181.977 35.200,182.141 35.745,181.885 36.410 C 181.630 37.076,181.786 38.066,182.232 38.610 C 182.678 39.155,183.247 42.296,183.496 45.592 C 183.746 48.887,184.320 51.707,184.773 51.858 C 185.227 52.009,185.389 53.093,185.134 54.266 C 184.758 55.999,184.846 56.175,185.605 55.200 C 186.380 54.204,186.472 54.306,186.144 55.800 C 185.927 56.790,186.076 57.600,186.475 57.600 C 186.874 57.600,187.200 57.981,187.200 58.447 C 187.200 58.913,186.845 59.075,186.412 58.807 C 185.919 58.503,185.817 59.308,186.139 60.960 C 186.422 62.412,186.918 63.707,187.242 63.838 C 187.565 63.969,187.632 64.836,187.389 65.763 C 187.050 67.061,187.208 67.293,188.074 66.772 C 188.997 66.215,189.021 66.314,188.207 67.320 C 185.785 70.313,190.485 70.396,193.436 67.413 C 194.626 66.210,195.897 65.319,196.259 65.433 C 196.622 65.547,196.691 65.271,196.412 64.820 C 196.134 64.369,196.308 64.000,196.800 64.000 C 197.292 64.000,197.490 63.669,197.240 63.264 C 196.990 62.860,197.354 61.960,198.050 61.264 C 198.745 60.569,199.096 60.000,198.829 60.000 C 198.562 60.000,198.793 59.190,199.342 58.200 C 199.891 57.210,200.263 56.130,200.170 55.800 C 200.076 55.470,200.349 55.200,200.775 55.200 C 201.201 55.200,201.364 54.716,201.137 54.124 C 200.398 52.199,213.241 44.000,216.994 44.000 C 217.819 44.000,218.287 43.664,218.033 43.253 C 217.779 42.842,218.583 42.535,219.820 42.570 C 221.056 42.605,222.841 42.220,223.785 41.715 C 224.730 41.209,225.691 41.100,225.921 41.473 C 226.557 42.500,225.490 48.026,224.745 47.566 C 224.388 47.345,224.283 48.522,224.514 50.182 C 224.750 51.885,224.642 52.798,224.266 52.277 C 223.885 51.750,223.580 53.744,223.554 56.935 C 223.524 60.662,223.157 62.732,222.449 63.170 C 221.712 63.625,221.552 64.692,221.923 66.668 C 222.216 68.232,222.051 72.682,221.555 76.556 C 218.534 100.178,218.652 102.835,222.643 101.017 C 224.640 100.107,224.625 100.163,226.093 88.570 C 226.249 87.344,226.741 85.657,227.188 84.823 C 227.635 83.988,228.000 81.818,228.000 80.000 C 228.000 78.182,228.368 76.008,228.817 75.169 C 229.266 74.329,229.716 72.195,229.817 70.425 C 229.918 68.656,230.247 67.206,230.550 67.204 C 230.852 67.202,231.081 65.814,231.057 64.121 C 230.999 59.898,232.779 49.707,233.672 49.156 C 234.072 48.908,234.400 48.062,234.400 47.275 C 234.400 44.882,236.966 42.540,238.800 43.260 C 241.006 44.125,241.775 44.130,241.246 43.275 C 241.000 42.876,241.514 42.737,242.390 42.966 C 243.266 43.195,243.767 43.730,243.504 44.156 C 243.240 44.582,243.694 44.824,244.513 44.694 C 246.291 44.411,250.064 46.769,250.767 48.603 C 251.174 49.663,250.925 49.616,249.448 48.355 C 248.199 47.288,247.951 47.219,248.660 48.137 C 249.915 49.764,249.012 51.669,244.839 56.200 C 243.319 57.850,242.396 59.200,242.788 59.200 C 243.181 59.200,242.709 59.938,241.740 60.841 C 240.772 61.743,239.649 62.277,239.245 62.028 C 238.841 61.778,238.250 61.995,237.932 62.511 C 237.549 63.129,237.701 63.232,238.380 62.812 C 239.069 62.386,239.275 62.543,239.004 63.289 C 238.782 63.900,238.232 64.322,237.782 64.227 C 237.332 64.132,237.138 64.852,237.351 65.827 C 237.664 67.256,237.573 67.367,236.882 66.400 C 235.782 64.861,235.745 66.028,236.828 68.053 C 237.284 68.904,238.274 69.587,239.028 69.572 C 240.467 69.542,244.943 67.278,243.661 67.228 C 243.254 67.213,243.756 66.311,244.777 65.225 C 245.797 64.138,246.949 63.445,247.336 63.684 C 247.723 63.923,247.941 63.822,247.820 63.459 C 247.699 63.097,247.806 62.800,248.057 62.800 C 248.677 62.800,251.200 60.239,251.200 59.610 C 251.200 59.333,250.750 59.376,250.200 59.706 C 249.521 60.115,249.552 59.873,250.298 58.954 C 251.487 57.488,252.405 57.098,251.600 58.400 C 250.823 59.657,252.124 59.336,253.742 57.872 C 255.485 56.294,256.200 56.792,256.200 59.581 C 256.200 60.708,256.491 61.809,256.848 62.029 C 257.852 62.650,260.153 71.248,259.659 72.535 C 259.414 73.173,259.570 73.466,260.009 73.194 C 260.732 72.748,261.110 74.030,261.015 76.600 C 260.994 77.150,261.340 77.600,261.782 77.600 C 262.225 77.600,262.417 78.489,262.209 79.576 C 262.000 80.669,262.161 81.348,262.569 81.096 C 262.975 80.845,263.226 81.126,263.127 81.720 C 263.029 82.314,263.180 83.340,263.464 84.000 C 263.749 84.660,264.461 86.609,265.048 88.332 C 266.284 91.963,267.861 92.492,271.481 90.486 C 276.929 87.468,277.103 87.591,276.089 93.743 C 276.040 94.041,275.370 94.916,274.600 95.686 C 273.830 96.456,273.200 97.341,273.200 97.653 C 273.200 97.965,272.463 98.890,271.562 99.710 C 270.662 100.529,270.319 101.020,270.800 100.800 C 271.281 100.580,271.118 100.940,270.438 101.600 C 269.757 102.260,269.120 103.877,269.023 105.192 C 268.926 106.508,268.476 107.708,268.023 107.859 C 267.570 108.010,267.200 108.485,267.200 108.914 C 267.200 109.343,267.522 109.496,267.915 109.253 C 268.308 109.010,268.855 109.709,269.130 110.806 C 269.446 112.066,270.196 112.800,271.168 112.800 C 272.014 112.800,272.874 113.073,273.080 113.406 C 273.874 114.690,274.592 120.213,273.911 119.793 C 273.520 119.553,273.085 121.840,272.944 124.878 C 272.678 130.601,273.437 131.740,275.957 129.400 C 276.608 128.796,276.832 128.763,276.522 129.316 C 275.620 130.927,278.666 131.405,279.887 129.844 C 280.971 128.456,280.996 128.457,280.508 129.865 C 280.228 130.671,280.000 131.683,280.000 132.113 C 280.000 132.543,279.730 132.729,279.400 132.526 C 279.070 132.323,278.760 133.240,278.711 134.563 C 278.661 135.886,278.301 137.201,277.911 137.484 C 277.520 137.768,277.085 138.720,276.943 139.600 C 276.198 144.251,275.731 146.086,275.086 146.899 C 274.693 147.393,274.620 148.442,274.922 149.230 C 275.253 150.093,275.157 150.468,274.681 150.173 C 274.204 149.879,273.993 150.702,274.151 152.242 C 274.339 154.088,274.232 154.385,273.764 153.310 C 273.258 152.148,272.906 152.732,272.158 155.971 C 271.063 160.714,270.991 162.748,272.000 160.400 C 272.615 158.969,272.693 159.026,272.744 160.943 C 272.775 162.121,272.260 163.626,271.600 164.286 C 270.184 165.701,269.983 167.552,271.336 166.716 C 271.964 166.328,272.105 166.572,271.765 167.459 C 271.486 168.186,271.014 170.615,270.717 172.856 C 270.420 175.098,269.957 176.579,269.688 176.147 C 269.420 175.716,269.154 177.288,269.097 179.641 C 269.031 182.408,268.536 184.378,267.697 185.217 C 266.232 186.682,265.932 188.384,267.286 187.547 C 267.875 187.183,268.009 187.568,267.686 188.700 C 267.419 189.635,266.996 191.120,266.746 192.000 C 266.496 192.880,265.935 193.600,265.499 193.600 C 265.063 193.600,264.920 193.947,265.181 194.370 C 265.705 195.217,261.820 203.438,260.693 203.868 C 260.306 204.016,260.159 204.410,260.366 204.744 C 260.572 205.078,259.536 206.668,258.063 208.276 C 256.589 209.884,255.555 211.200,255.763 211.200 C 256.365 211.200,247.763 219.356,244.373 222.000 C 242.681 223.320,240.947 224.291,240.521 224.158 C 240.095 224.025,239.526 224.273,239.256 224.709 C 237.441 227.645,216.310 234.175,202.649 236.021 C 188.298 237.960,156.807 235.352,153.240 231.929 C 152.822 231.528,151.688 231.200,150.719 231.200 C 146.176 231.200,129.998 220.850,125.124 214.825 C 123.846 213.245,121.976 210.973,120.969 209.776 C 117.634 205.814,115.636 202.052,115.879 200.194 C 116.026 199.077,115.741 198.446,115.151 198.580 C 113.918 198.860,112.640 194.588,113.222 192.133 C 113.511 190.912,113.365 190.451,112.800 190.800 C 112.217 191.160,112.112 190.633,112.476 189.181 C 112.819 187.814,112.657 186.806,112.033 186.420 C 111.491 186.086,110.963 183.873,110.858 181.503 C 110.753 179.133,110.265 176.443,109.775 175.526 C 109.284 174.609,109.086 173.080,109.334 172.129 C 109.583 171.178,109.418 170.400,108.968 170.400 C 108.171 170.400,106.690 163.193,106.996 160.800 C 107.081 160.140,106.929 159.060,106.660 158.400 C 106.391 157.740,106.249 156.210,106.345 155.000 C 106.442 153.790,106.171 152.800,105.744 152.800 C 104.980 152.800,104.070 148.494,103.759 143.400 C 103.672 141.970,103.283 140.800,102.895 140.800 C 102.508 140.800,102.396 139.532,102.648 137.982 C 102.899 136.432,102.802 135.352,102.431 135.581 C 101.635 136.073,100.429 126.847,101.139 125.698 C 101.407 125.265,101.280 124.697,100.857 124.435 C 100.412 124.160,100.129 118.822,100.184 111.780 C 100.242 104.520,100.501 100.893,100.827 102.800 L 101.373 106.000 101.486 102.200 C 101.549 100.110,101.302 98.400,100.939 98.400 C 100.575 98.400,100.436 97.320,100.629 96.000 C 100.823 94.680,101.322 93.600,101.738 93.600 C 102.154 93.600,102.295 93.278,102.052 92.884 C 101.589 92.135,103.870 90.823,105.127 91.115 C 105.526 91.208,106.167 90.815,106.551 90.242 C 106.982 89.599,107.053 90.044,106.736 91.405 C 106.004 94.558,107.070 99.854,108.133 98.345 C 108.744 97.476,108.841 97.646,108.531 99.049 C 108.066 101.164,109.899 102.308,111.815 101.099 C 112.963 100.375,113.143 94.645,112.433 81.403 C 112.344 79.754,112.438 78.572,112.641 78.775 C 112.844 78.978,113.683 78.784,114.505 78.344 C 115.542 77.789,116.000 77.812,116.000 78.419 C 116.000 78.901,116.360 79.072,116.800 78.800 C 117.519 78.355,117.947 79.405,117.695 81.000 C 117.643 81.330,118.140 81.600,118.800 81.600 C 119.460 81.600,119.910 81.935,119.800 82.344 C 119.690 82.752,120.239 83.565,121.021 84.148 C 123.029 85.647,124.835 93.122,124.239 97.467 C 123.896 99.972,124.013 100.887,124.627 100.507 C 125.196 100.155,125.452 100.746,125.353 102.181 C 125.234 103.910,125.585 104.453,126.946 104.648 C 130.137 105.103,130.624 102.590,129.565 91.144 C 128.585 80.565,129.629 62.971,131.297 61.940 C 131.684 61.701,132.000 60.423,132.000 59.100 C 132.000 57.777,132.310 56.088,132.689 55.347 C 134.359 52.084,134.598 49.241,133.101 50.460 C 131.850 51.478,131.759 51.444,132.250 50.135 C 132.553 49.329,132.800 48.184,132.800 47.592 C 132.800 46.999,133.379 45.936,134.086 45.228 C 134.796 44.518,135.188 43.239,134.961 42.371 C 134.735 41.507,134.900 40.800,135.329 40.800 C 135.759 40.800,135.866 40.039,135.568 39.100 C 135.173 37.855,135.297 37.565,136.031 38.019 C 136.774 38.479,136.903 38.120,136.530 36.632 C 136.155 35.138,136.483 34.238,137.813 33.112 C 139.596 31.603,139.597 31.604,138.200 33.263 C 137.430 34.178,136.800 35.185,136.800 35.501 C 136.800 36.116,143.430 31.175,143.852 30.245 C 143.990 29.940,144.553 29.862,145.102 30.073 C 145.651 30.284,146.742 29.748,147.526 28.882 C 148.309 28.016,149.447 27.499,150.055 27.732 C 150.662 27.965,151.798 27.514,152.579 26.729 C 153.941 25.362,154.021 25.618,154.510 32.851 C 155.299 44.505,155.280 57.600,154.475 57.600 C 153.427 57.600,154.360 60.571,155.778 61.748 C 156.774 62.575,157.268 62.406,158.624 60.774 C 159.840 59.312,160.123 59.193,159.714 60.313 C 159.256 61.571,159.360 61.663,160.332 60.857 C 162.610 58.966,164.037 63.858,164.387 74.767 C 164.563 80.219,165.100 86.143,165.582 87.932 C 166.071 89.750,166.223 92.950,165.926 95.192 C 165.476 98.580,165.595 99.200,166.697 99.200 C 167.414 99.200,168.000 99.581,168.000 100.047 C 168.000 100.513,167.590 100.641,167.089 100.332 C 166.433 99.926,166.341 100.636,166.762 102.878 C 167.584 107.261,167.792 107.432,171.764 106.984 C 174.426 106.684,175.434 106.879,175.772 107.759 C 176.142 108.723,176.356 108.743,176.964 107.867 C 177.473 107.133,177.550 107.351,177.210 108.565 C 176.937 109.536,176.979 111.696,177.302 113.365 C 177.842 116.153,177.933 116.237,178.411 114.400 C 178.869 112.644,179.007 112.820,179.544 115.844 C 180.414 120.743,182.635 120.212,183.240 114.959 C 183.985 108.491,181.381 100.498,175.869 92.330 C 171.381 85.680,170.513 80.407,170.428 59.298 C 170.387 48.998,170.174 40.282,169.956 39.929 C 169.220 38.738,168.717 21.964,169.450 23.052 C 170.031 23.914,170.647 23.893,172.879 22.931 C 174.863 22.076,179.200 21.423,179.200 21.980 M163.454 27.800 C 163.854 29.803,163.736 33.641,162.841 47.600 C 162.672 50.240,162.504 53.051,162.467 53.847 C 162.430 54.643,162.071 55.091,161.668 54.842 C 161.266 54.594,160.754 54.842,160.531 55.395 C 160.309 55.948,160.098 55.071,160.063 53.447 C 160.028 51.823,160.366 50.268,160.813 49.992 C 161.260 49.716,161.563 47.728,161.487 45.575 C 161.411 43.423,161.075 41.830,160.742 42.036 C 160.408 42.242,160.430 41.419,160.792 40.206 C 162.559 34.273,162.782 32.954,162.553 29.782 C 162.392 27.553,162.001 26.552,161.430 26.905 C 160.903 27.231,160.781 27.078,161.124 26.524 C 162.077 24.981,162.990 25.481,163.454 27.800 M275.397 58.007 C 275.699 59.588,275.560 59.830,274.738 59.149 C 274.164 58.672,273.892 57.769,274.133 57.142 C 274.743 55.553,274.956 55.700,275.397 58.007 M164.000 59.647 C 164.000 60.281,163.640 60.800,163.200 60.800 C 162.760 60.800,162.400 60.059,162.400 59.153 C 162.400 58.247,162.760 57.728,163.200 58.000 C 163.640 58.272,164.000 59.013,164.000 59.647 M279.569 63.362 C 279.097 65.814,275.899 69.732,274.735 69.286 C 274.139 69.057,273.400 69.276,273.094 69.772 C 271.778 71.900,271.391 67.221,272.603 63.849 L 273.881 60.297 276.866 61.094 C 279.133 61.699,279.784 62.245,279.569 63.362 M275.911 109.255 C 277.094 108.524,277.017 109.369,275.552 113.200 L 274.328 116.400 274.711 113.415 C 274.922 111.773,274.758 110.221,274.347 109.967 C 273.936 109.713,273.606 109.077,273.612 108.553 C 273.620 107.926,273.864 107.978,274.323 108.702 C 274.707 109.309,275.421 109.558,275.911 109.255 M231.200 144.752 C 231.200 145.026,230.210 145.675,229.000 146.196 C 214.395 152.478,208.170 172.049,217.420 182.600 C 218.096 183.370,218.454 184.000,218.216 184.000 C 217.979 184.000,219.143 185.486,220.803 187.302 C 222.464 189.118,224.200 190.371,224.662 190.085 C 225.124 189.800,225.826 190.146,226.223 190.855 C 226.619 191.564,227.181 192.111,227.472 192.072 C 229.514 191.794,231.224 192.113,230.860 192.703 C 230.198 193.774,242.682 193.767,245.301 192.695 C 246.566 192.177,248.037 191.663,248.571 191.552 C 251.060 191.034,257.257 185.409,257.740 183.228 C 257.883 182.583,258.584 181.503,259.298 180.828 C 264.312 176.086,263.477 153.600,258.287 153.600 C 257.882 153.600,256.515 152.420,255.250 150.979 C 251.188 146.353,246.208 144.410,238.200 144.328 C 234.350 144.288,231.200 144.479,231.200 144.752 M136.117 147.617 C 133.761 148.273,130.825 149.528,129.593 150.405 C 128.361 151.282,127.049 152.021,126.677 152.046 C 124.800 152.173,119.213 160.488,118.428 164.323 C 117.056 171.021,117.454 180.521,119.151 181.569 C 119.664 181.887,119.975 182.654,119.842 183.273 C 119.709 183.893,120.037 184.314,120.571 184.210 C 121.143 184.098,121.349 184.523,121.073 185.242 C 120.776 186.017,121.006 186.380,121.702 186.233 C 122.306 186.105,122.752 186.360,122.694 186.800 C 122.635 187.240,123.492 188.500,124.599 189.600 C 125.705 190.700,126.339 191.113,126.007 190.517 C 125.601 189.788,126.090 189.884,127.502 190.809 C 128.656 191.565,129.601 192.413,129.602 192.692 C 129.605 193.790,142.352 196.235,143.427 195.344 C 144.003 194.866,145.177 194.477,146.037 194.480 C 148.955 194.491,152.391 193.363,155.186 191.479 C 156.718 190.445,157.618 189.595,157.186 189.588 C 156.754 189.582,157.300 189.121,158.400 188.565 C 159.500 188.008,160.400 187.113,160.400 186.576 C 160.400 186.039,160.694 185.619,161.052 185.641 C 161.798 185.688,164.800 182.068,164.800 181.121 C 164.800 180.776,164.229 181.193,163.531 182.047 C 162.833 182.901,163.027 182.275,163.962 180.655 C 173.553 164.041,155.223 142.293,136.117 147.617 M235.464 159.887 C 236.786 160.984,237.051 165.600,235.793 165.600 C 235.373 165.600,235.234 166.135,235.485 166.788 C 236.828 170.288,227.556 169.642,225.904 166.120 C 223.787 161.608,231.488 156.588,235.464 159.887 M137.918 160.933 C 137.691 161.300,137.908 161.600,138.400 161.600 C 138.892 161.600,139.095 161.922,138.852 162.316 C 138.608 162.710,138.956 163.242,139.623 163.498 C 140.950 164.007,140.700 167.620,139.237 169.083 C 137.136 171.184,132.033 171.016,130.227 168.785 C 128.775 166.991,128.217 163.545,129.509 164.344 C 129.899 164.585,130.400 164.086,130.622 163.236 C 130.864 162.314,132.109 161.407,133.713 160.986 C 137.101 160.098,138.444 160.081,137.918 160.933 M108.504 229.219 C 108.122 230.213,108.327 230.281,109.618 229.590 C 110.516 229.110,111.200 229.065,111.200 229.486 C 111.200 230.224,109.340 231.200,107.935 231.200 C 107.531 231.200,107.200 230.480,107.200 229.600 C 107.200 228.720,107.599 228.000,108.086 228.000 C 108.573 228.000,108.761 228.548,108.504 229.219 M116.265 231.212 C 117.713 231.222,117.802 231.366,116.800 232.082 C 115.845 232.764,115.984 232.854,117.481 232.523 C 119.667 232.040,123.362 233.491,122.695 234.570 C 122.444 234.976,122.726 235.226,123.320 235.127 C 126.258 234.639,127.343 236.170,125.043 237.561 C 122.089 239.347,117.413 240.949,118.020 239.968 C 118.281 239.546,117.663 239.194,116.647 239.188 C 115.161 239.178,115.035 239.024,116.000 238.400 C 116.936 237.795,116.960 237.622,116.107 237.612 C 115.363 237.604,115.140 236.936,115.410 235.525 C 115.741 233.797,115.422 233.315,113.504 232.647 C 112.238 232.205,111.418 231.495,111.682 231.068 C 111.946 230.640,112.695 230.495,113.346 230.745 C 113.998 230.995,115.311 231.206,116.265 231.212 M237.200 236.000 C 236.928 236.440,237.288 236.800,238.000 236.800 C 238.712 236.800,239.072 237.160,238.800 237.600 C 238.528 238.040,238.713 238.400,239.210 238.400 C 240.935 238.400,242.527 240.580,241.179 241.097 C 240.531 241.346,240.000 241.960,240.000 242.460 C 240.000 242.961,240.514 243.174,241.142 242.933 C 242.549 242.393,244.466 244.417,243.255 245.166 C 242.803 245.445,241.786 245.328,240.995 244.904 C 238.977 243.824,234.435 244.275,233.488 245.650 C 232.900 246.503,232.826 246.334,233.202 244.998 C 233.594 243.606,233.062 242.585,230.863 240.511 L 228.017 237.827 232.208 236.607 C 237.508 235.064,237.801 235.028,237.200 236.000 M151.400 238.049 C 154.166 238.708,154.112 239.238,149.514 256.800 C 148.931 259.026,142.196 261.989,136.109 262.698 C 134.740 262.857,133.106 263.414,132.479 263.934 C 130.526 265.555,127.483 265.708,126.296 264.245 C 125.693 263.501,125.604 263.135,126.098 263.431 C 126.937 263.933,130.400 256.076,130.400 253.671 C 130.400 253.140,130.760 252.928,131.200 253.200 C 131.909 253.638,132.390 251.956,132.075 250.141 C 132.012 249.778,132.297 249.689,132.709 249.944 C 133.121 250.199,134.838 248.515,136.524 246.204 C 141.173 239.830,143.219 237.719,145.094 237.362 C 146.818 237.034,147.422 237.100,151.400 238.049 M254.019 240.495 C 253.307 241.208,252.481 241.548,252.185 241.252 C 251.889 240.955,252.176 240.378,252.823 239.969 C 254.713 238.773,255.427 239.088,254.019 240.495 M219.467 243.736 C 219.627 245.510,219.945 247.285,220.173 247.681 C 220.523 248.288,222.081 255.976,222.670 260.000 C 222.766 260.660,223.069 261.560,223.342 262.000 C 224.587 264.004,224.352 270.712,223.064 269.916 C 222.444 269.533,222.293 269.766,222.616 270.608 C 223.140 271.974,220.858 273.849,216.995 275.226 C 214.940 275.959,214.899 275.932,216.353 274.805 C 218.554 273.097,215.361 273.144,210.400 274.891 C 207.937 275.759,205.389 276.016,202.334 275.706 C 195.879 275.051,195.200 274.651,195.200 271.514 C 195.200 270.021,194.827 268.800,194.372 268.800 C 193.802 268.800,193.802 268.317,194.374 267.249 C 194.897 266.271,194.921 265.522,194.437 265.223 C 194.015 264.962,193.895 264.161,194.171 263.443 C 194.535 262.494,194.379 262.318,193.600 262.800 C 192.817 263.284,192.666 263.104,193.039 262.131 C 193.320 261.399,193.184 260.800,192.738 260.800 C 191.298 260.800,192.184 253.416,193.820 251.780 C 194.705 250.895,195.116 249.736,194.820 248.963 C 194.542 248.240,194.521 247.854,194.772 248.105 C 195.023 248.356,196.448 247.412,197.937 246.007 C 200.610 243.487,207.084 241.700,214.983 241.303 C 216.362 241.234,217.755 240.912,218.078 240.588 C 218.946 239.720,219.147 240.174,219.467 243.736 M168.024 241.844 C 171.350 241.731,172.677 241.952,172.303 242.557 C 171.935 243.153,172.439 243.263,173.881 242.901 C 175.476 242.501,176.000 242.670,176.000 243.585 C 176.000 244.253,176.540 244.800,177.200 244.800 C 178.654 244.800,178.789 246.094,177.400 246.710 C 176.752 246.997,176.823 247.103,177.600 247.011 C 178.260 246.932,179.824 247.138,181.077 247.469 C 182.396 247.817,183.770 247.723,184.346 247.245 C 185.106 246.614,185.369 247.198,185.469 249.743 C 185.540 251.571,185.822 253.276,186.095 253.533 C 186.369 253.790,186.441 252.650,186.257 251.000 C 186.072 249.350,186.209 248.000,186.561 248.000 C 186.912 248.000,187.200 249.821,187.200 252.047 C 187.200 254.354,186.878 255.896,186.452 255.632 C 186.008 255.357,185.842 256.987,186.045 259.649 C 186.411 264.468,186.908 265.875,188.005 265.197 C 188.387 264.961,188.508 265.765,188.274 266.984 C 188.039 268.203,187.778 269.602,187.693 270.093 C 187.107 273.464,185.071 274.694,179.794 274.865 C 176.889 274.959,174.168 275.249,173.746 275.509 C 172.157 276.492,162.400 276.984,162.400 276.082 C 162.400 275.597,161.659 275.200,160.753 275.200 C 159.847 275.200,159.317 274.858,159.575 274.440 C 159.833 274.022,159.315 273.290,158.422 272.812 C 157.530 272.334,156.800 271.236,156.800 270.372 C 156.800 269.507,156.500 268.800,156.132 268.800 C 155.298 268.800,156.433 260.140,157.967 254.800 C 158.599 252.600,159.139 249.720,159.167 248.400 C 159.255 244.234,159.448 243.259,160.107 243.666 C 160.459 243.884,161.208 243.325,161.771 242.423 C 162.334 241.522,162.887 241.060,162.999 241.396 C 163.111 241.733,165.372 241.934,168.024 241.844 M232.865 246.923 C 233.561 247.517,234.401 247.733,234.732 247.402 C 235.063 247.071,235.213 247.340,235.067 248.000 C 234.794 249.227,235.292 249.345,243.200 249.927 C 245.180 250.072,246.980 250.281,247.200 250.390 C 247.420 250.500,247.835 250.558,248.123 250.520 C 248.411 250.482,249.092 250.988,249.636 251.644 C 250.467 252.645,250.388 252.745,249.139 252.266 C 247.815 251.758,247.781 251.835,248.826 252.971 C 249.472 253.673,250.180 254.191,250.400 254.123 C 250.620 254.056,250.859 254.320,250.932 254.711 C 251.004 255.101,251.541 255.716,252.125 256.077 C 252.708 256.438,253.224 257.198,253.271 257.766 C 253.495 260.487,253.657 260.859,254.415 260.391 C 255.285 259.853,257.713 264.770,257.081 265.792 C 256.875 266.126,257.045 266.400,257.459 266.400 C 258.640 266.400,259.116 269.358,258.107 270.422 C 257.410 271.159,257.660 271.240,259.194 270.775 C 260.989 270.230,261.077 270.302,260.081 271.503 C 259.107 272.676,259.148 272.770,260.418 272.282 C 261.414 271.900,261.682 272.020,261.282 272.667 C 260.624 273.733,257.311 273.136,254.773 271.495 C 253.878 270.916,252.438 270.313,251.573 270.154 C 247.330 269.374,240.693 266.946,238.857 265.502 C 236.839 263.914,235.908 261.754,237.726 262.878 C 238.375 263.279,238.498 262.875,238.137 261.525 C 237.854 260.466,237.617 259.132,237.611 258.559 C 237.605 257.987,236.250 256.955,234.600 256.266 C 229.919 254.312,224.356 246.621,228.183 247.394 C 228.743 247.508,229.155 246.998,229.099 246.263 C 228.988 244.781,230.709 245.082,232.865 246.923 M148.000 268.047 C 148.000 269.456,147.664 270.287,147.209 270.006 C 146.774 269.737,146.606 270.005,146.835 270.602 C 147.367 271.988,144.006 285.790,141.234 293.600 C 138.760 300.572,137.841 303.550,137.218 306.600 C 136.678 309.251,135.593 309.496,135.406 307.010 C 135.300 305.603,135.432 305.475,136.023 306.410 C 136.623 307.359,136.778 307.236,136.788 305.800 C 136.794 304.810,136.395 304.000,135.900 304.000 C 135.323 304.000,135.175 303.123,135.488 301.560 C 135.791 300.047,135.677 299.305,135.188 299.607 C 134.433 300.074,133.986 296.687,134.158 291.804 C 134.200 290.596,133.896 289.817,133.481 290.074 C 133.024 290.356,132.903 288.856,133.174 286.270 C 133.488 283.281,133.396 282.480,132.867 283.600 C 132.142 285.138,132.110 285.130,132.056 283.400 C 132.025 282.410,132.410 281.600,132.912 281.600 C 133.539 281.600,133.682 280.226,133.370 277.200 C 133.094 274.533,133.226 272.800,133.705 272.800 C 134.139 272.800,134.238 272.384,133.924 271.876 C 133.575 271.312,133.704 271.170,134.255 271.510 C 134.751 271.817,135.787 271.333,136.556 270.434 C 138.049 268.691,140.000 268.245,140.000 269.647 C 140.000 270.123,140.439 270.222,141.000 269.874 C 141.550 269.533,142.900 269.198,144.000 269.131 C 147.126 268.939,147.200 268.894,147.200 267.200 C 147.200 266.320,147.380 265.600,147.600 265.600 C 147.820 265.600,148.000 266.701,148.000 268.047 M278.000 271.200 C 277.728 271.640,278.067 272.000,278.753 272.000 C 280.785 272.000,279.079 275.825,276.943 276.059 C 276.644 276.092,275.568 276.273,274.551 276.462 C 273.447 276.667,272.902 276.482,273.199 276.002 C 273.471 275.561,273.310 275.200,272.840 275.200 C 271.537 275.200,273.485 272.451,275.501 271.444 C 277.772 270.311,278.599 270.230,278.000 271.200 M240.800 271.931 C 241.867 272.014,241.867 272.120,240.800 272.888 C 239.789 273.615,239.822 273.679,241.009 273.297 C 244.037 272.322,248.261 276.036,246.804 278.393 C 246.530 278.837,246.627 279.200,247.019 279.200 C 247.412 279.200,247.733 279.698,247.733 280.306 C 247.733 281.118,247.178 281.253,245.644 280.813 C 241.615 279.657,236.734 276.753,237.295 275.846 C 237.641 275.287,237.483 275.178,236.873 275.555 C 235.617 276.331,232.778 273.789,233.320 272.375 C 233.591 271.670,234.745 271.392,236.667 271.569 C 238.280 271.717,240.140 271.880,240.800 271.931 M121.931 277.746 C 121.585 279.646,121.385 281.650,121.486 282.200 C 121.587 282.750,121.294 283.200,120.835 283.200 C 120.376 283.200,120.000 283.581,120.000 284.047 C 120.000 284.513,120.450 284.666,121.000 284.388 C 121.550 284.109,121.441 284.358,120.758 284.941 C 120.075 285.523,119.477 286.720,119.428 287.600 C 119.379 288.480,119.169 290.280,118.961 291.600 C 118.753 292.920,118.541 294.291,118.491 294.647 C 118.441 295.003,117.950 295.024,117.400 294.694 C 116.618 294.224,116.621 294.366,117.414 295.345 C 118.525 296.717,118.043 298.859,116.489 299.455 C 115.799 299.720,115.594 299.076,115.807 297.317 C 116.016 295.602,115.876 295.139,115.370 295.865 C 114.401 297.251,113.579 293.333,113.656 287.700 C 113.700 284.507,113.879 283.954,114.467 285.200 C 115.117 286.578,115.181 286.498,114.927 284.624 C 114.764 283.428,114.939 282.639,115.316 282.871 C 115.980 283.282,116.330 281.038,116.043 278.206 C 115.940 277.191,116.278 276.957,117.290 277.345 C 118.361 277.756,118.559 277.568,118.157 276.520 C 117.726 275.398,117.895 275.302,119.130 275.962 C 120.345 276.613,120.708 276.436,121.080 275.016 C 121.886 271.935,122.581 274.168,121.931 277.746 M253.663 279.400 C 253.698 280.390,253.901 280.770,254.115 280.245 C 255.136 277.736,256.562 280.274,256.279 284.096 C 256.103 286.470,256.288 287.916,256.734 287.641 C 257.147 287.385,257.601 287.916,257.743 288.820 C 257.884 289.724,258.320 290.418,258.711 290.363 C 259.620 290.235,260.775 292.047,260.775 293.600 C 260.775 294.667,260.689 294.667,260.000 293.600 C 259.337 292.574,259.223 292.604,259.212 293.800 C 259.206 294.570,259.505 295.200,259.878 295.200 C 260.251 295.200,260.590 296.363,260.630 297.784 C 260.670 299.205,261.085 300.495,261.552 300.651 C 262.018 300.806,262.400 301.443,262.400 302.067 C 262.400 302.690,262.760 303.200,263.200 303.200 C 263.640 303.200,264.000 303.860,264.000 304.667 C 264.000 306.638,264.591 307.105,266.464 306.615 C 268.324 306.129,268.169 304.641,265.017 292.800 C 263.905 288.620,262.934 284.654,262.859 283.986 C 262.785 283.318,262.473 282.366,262.167 281.870 C 261.860 281.374,262.129 280.768,262.764 280.525 C 263.573 280.214,263.770 280.468,263.423 281.372 C 263.095 282.227,263.241 282.469,263.858 282.088 C 264.369 281.772,265.420 281.920,266.194 282.417 C 267.474 283.240,267.477 283.283,266.226 282.895 C 265.470 282.661,264.638 282.814,264.378 283.235 C 264.118 283.656,264.467 284.000,265.153 284.000 C 265.839 284.000,266.400 284.381,266.400 284.847 C 266.400 285.313,266.731 285.490,267.136 285.240 C 268.218 284.571,269.810 290.077,269.143 292.181 C 268.652 293.726,268.744 293.843,269.775 292.987 C 270.809 292.129,270.930 292.300,270.628 294.193 C 270.352 295.917,270.461 296.137,271.125 295.200 C 272.030 293.923,272.402 294.851,272.041 297.480 C 271.960 298.074,272.260 298.334,272.709 298.056 C 273.175 297.768,273.924 299.021,274.455 300.976 C 275.564 305.060,275.008 318.330,273.694 319.142 C 273.061 319.533,273.015 320.974,273.535 324.048 C 275.511 335.709,275.471 336.209,272.386 338.310 C 266.743 342.152,264.080 341.271,261.781 334.800 C 259.372 328.020,259.614 328.308,257.356 329.517 C 256.015 330.234,255.493 331.249,255.436 333.249 C 255.394 334.760,255.683 335.796,256.079 335.551 C 257.287 334.805,256.882 336.536,255.600 337.600 C 254.940 338.148,254.400 338.912,254.400 339.298 C 254.400 340.197,256.218 339.847,256.988 338.800 C 257.320 338.348,257.581 338.609,257.588 339.400 C 257.602 341.025,255.781 341.198,252.119 339.922 C 250.599 339.392,249.600 338.493,249.600 337.655 C 249.600 336.891,249.359 336.026,249.065 335.731 C 248.770 335.437,248.408 333.847,248.259 332.198 C 248.111 330.549,247.407 326.983,246.696 324.272 C 245.701 320.485,245.618 319.097,246.339 318.272 C 247.628 316.797,252.800 308.760,252.800 308.232 C 252.800 307.997,252.170 308.281,251.400 308.863 C 250.191 309.778,250.142 309.764,251.040 308.761 C 251.612 308.123,252.512 307.600,253.040 307.600 C 253.568 307.600,254.000 307.060,254.000 306.400 C 254.000 305.740,254.187 305.020,254.416 304.800 C 256.001 303.277,256.611 299.915,255.885 296.700 C 255.451 294.775,255.247 292.401,255.432 291.424 C 255.618 290.447,255.432 289.857,255.019 290.112 C 254.607 290.366,254.354 289.906,254.458 289.087 C 254.561 288.269,254.437 287.060,254.182 286.400 C 253.927 285.740,253.563 284.120,253.373 282.800 C 253.182 281.480,252.757 279.770,252.428 279.000 C 252.064 278.149,252.176 277.600,252.714 277.600 C 253.201 277.600,253.628 278.410,253.663 279.400 M156.333 279.000 C 156.663 279.330,157.353 279.616,157.867 279.636 C 158.380 279.656,158.695 280.151,158.567 280.735 C 158.430 281.360,158.794 281.620,159.453 281.367 C 160.068 281.131,161.613 281.625,162.886 282.464 C 164.159 283.303,164.729 283.992,164.153 283.995 C 163.577 283.998,163.332 284.366,163.608 284.813 C 163.884 285.260,164.421 285.434,164.800 285.200 C 165.179 284.966,165.750 285.195,166.068 285.711 C 166.430 286.296,166.300 286.433,165.724 286.076 C 165.176 285.738,164.800 286.014,164.800 286.753 C 164.800 287.439,165.160 288.000,165.600 288.000 C 166.630 288.000,166.645 290.954,165.618 291.589 C 164.279 292.416,158.468 290.422,157.624 288.845 C 157.064 287.799,156.273 287.479,155.010 287.790 C 154.015 288.036,153.464 287.949,153.788 287.597 C 154.111 287.246,153.863 286.563,153.238 286.079 C 152.612 285.596,151.894 283.760,151.642 282.000 C 151.307 279.665,151.386 279.232,151.935 280.400 C 152.349 281.280,152.713 281.550,152.744 281.000 C 152.775 280.450,153.361 280.000,154.047 280.000 C 154.733 280.000,155.072 279.640,154.800 279.200 C 154.226 278.272,155.446 278.112,156.333 279.000 M224.400 281.600 C 223.946 283.666,224.104 284.000,225.536 284.000 C 226.451 284.000,227.222 284.090,227.250 284.200 C 228.035 287.344,227.973 292.000,227.146 292.000 C 226.589 292.000,226.353 292.220,226.621 292.488 C 227.326 293.192,224.162 298.800,223.060 298.800 C 222.550 298.800,221.967 299.300,221.763 299.911 C 221.514 300.658,221.734 300.812,222.432 300.380 C 223.213 299.897,223.313 300.118,222.833 301.269 C 222.482 302.111,222.019 303.610,221.804 304.600 C 221.589 305.590,221.176 306.400,220.886 306.400 C 220.595 306.400,220.495 307.840,220.663 309.600 C 220.831 311.360,220.660 312.800,220.284 312.800 C 219.908 312.799,219.600 314.689,219.600 317.000 C 219.600 320.063,219.313 321.140,218.541 320.980 C 217.958 320.859,217.709 321.130,217.989 321.582 C 218.526 322.451,215.829 323.753,211.220 324.851 C 209.297 325.309,208.253 325.218,207.832 324.556 C 206.966 323.193,207.059 322.218,208.000 322.800 C 208.440 323.072,208.800 322.892,208.800 322.400 C 208.800 321.908,209.160 321.728,209.600 322.000 C 210.040 322.272,210.400 321.912,210.400 321.200 C 210.400 320.425,210.029 320.135,209.476 320.476 C 208.900 320.833,208.770 320.696,209.132 320.111 C 209.450 319.595,210.061 319.391,210.490 319.656 C 211.570 320.323,213.758 318.366,213.291 317.150 C 213.082 316.603,213.445 315.491,214.099 314.678 C 215.191 313.321,215.211 313.364,214.353 315.200 L 213.418 317.200 215.309 315.374 C 216.920 313.818,217.022 313.434,216.000 312.786 C 214.986 312.143,215.026 312.023,216.254 312.012 C 217.393 312.003,217.586 311.611,217.146 310.200 C 216.262 307.368,213.600 306.081,213.600 308.486 C 213.600 309.280,213.157 309.601,212.441 309.326 C 211.671 309.031,211.429 309.266,211.721 310.026 C 212.182 311.229,206.177 317.600,204.582 317.600 C 204.094 317.600,204.393 317.071,205.247 316.425 C 206.122 315.764,206.363 315.240,205.800 315.225 C 204.248 315.186,204.622 313.608,206.200 313.537 C 206.991 313.501,207.176 313.302,206.627 313.079 C 205.948 312.804,206.258 311.771,207.656 309.659 C 211.547 303.778,213.614 296.478,213.099 290.430 L 212.635 284.990 216.149 282.573 C 219.181 280.487,220.623 279.907,224.264 279.309 C 224.629 279.249,224.690 280.280,224.400 281.600 M197.600 280.968 C 197.600 281.412,199.466 281.630,201.934 281.474 C 205.158 281.270,206.070 281.438,205.495 282.129 C 204.986 282.740,205.051 283.261,205.685 283.652 C 206.295 284.029,206.438 283.909,206.076 283.324 C 205.762 282.816,205.887 282.400,206.353 282.400 C 207.658 282.400,207.356 283.833,205.876 284.661 C 205.080 285.107,204.751 285.919,205.051 286.701 C 205.340 287.453,205.139 288.024,204.575 288.056 C 204.039 288.087,204.320 288.422,205.200 288.800 C 206.248 289.250,204.128 289.507,199.057 289.544 C 193.141 289.587,191.018 289.897,190.057 290.857 C 188.676 292.238,188.330 293.985,189.591 293.206 C 190.044 292.925,190.178 293.247,189.905 293.958 C 189.511 294.986,190.167 295.198,193.714 295.188 C 196.973 295.178,197.712 294.971,196.800 294.320 C 195.891 293.673,196.255 293.579,198.300 293.933 C 199.785 294.190,202.125 294.406,203.500 294.412 C 205.493 294.422,205.756 294.598,204.800 295.282 C 203.836 295.970,203.954 296.061,205.400 295.744 C 206.775 295.443,207.200 295.710,207.200 296.875 C 207.200 297.714,206.851 298.400,206.425 298.400 C 205.999 298.400,205.828 298.864,206.046 299.431 C 206.264 299.999,205.271 302.249,203.840 304.431 C 200.574 309.413,199.417 310.650,199.049 309.547 C 198.889 309.067,198.117 308.959,197.243 309.294 C 195.746 309.869,195.746 309.892,197.258 310.542 C 198.352 311.011,197.986 311.114,196.000 310.895 C 191.121 310.358,182.168 308.118,181.668 307.310 C 181.404 306.883,180.056 306.611,178.672 306.707 C 176.638 306.847,175.888 306.426,174.754 304.507 C 173.462 302.320,173.458 302.174,174.700 302.651 C 175.822 303.081,176.017 302.705,175.862 300.408 C 175.760 298.889,175.209 297.468,174.638 297.249 C 174.067 297.029,173.600 296.007,173.600 294.975 C 173.600 293.944,172.880 291.610,172.000 289.789 C 170.032 285.715,169.978 283.715,171.800 282.337 C 172.991 281.435,173.051 281.445,172.200 282.399 C 169.833 285.054,171.108 286.615,173.605 284.119 C 176.047 281.676,177.989 281.196,188.000 280.561 C 195.214 280.103,197.600 280.204,197.600 280.968 M238.182 284.000 C 240.334 285.693,242.030 286.143,241.200 284.800 C 240.630 283.877,240.967 283.807,242.730 284.484 C 243.423 284.750,243.838 285.215,243.651 285.518 C 243.464 285.820,244.089 286.126,245.040 286.198 C 246.918 286.340,249.015 288.606,248.315 289.738 C 248.076 290.124,248.358 290.341,248.941 290.220 C 249.611 290.081,249.930 290.661,249.809 291.800 C 249.705 292.790,249.975 293.600,250.409 293.600 C 250.844 293.600,251.175 294.410,251.144 295.400 C 251.090 297.119,251.056 297.128,250.393 295.600 C 249.879 294.417,249.718 294.973,249.776 297.734 C 249.846 301.069,249.529 301.774,246.804 304.344 C 245.127 305.926,243.945 307.411,244.178 307.644 C 244.410 307.877,245.546 306.945,246.700 305.572 C 247.855 304.200,248.800 303.416,248.800 303.830 C 248.800 305.968,243.293 309.810,243.108 307.800 C 242.954 306.134,242.735 305.257,242.157 304.000 C 239.853 298.984,236.127 286.016,236.860 285.563 C 237.427 285.212,237.271 284.586,236.402 283.716 C 234.570 281.884,235.726 282.068,238.182 284.000 M258.375 285.600 C 258.375 286.667,258.289 286.667,257.600 285.600 C 257.173 284.940,256.825 283.860,256.825 283.200 C 256.825 282.133,256.911 282.133,257.600 283.200 C 258.027 283.860,258.375 284.940,258.375 285.600 M125.544 290.902 C 125.575 290.518,126.148 290.659,126.818 291.215 C 127.851 292.073,127.955 291.996,127.501 290.713 C 127.052 289.446,127.147 289.369,128.082 290.240 C 128.794 290.902,129.200 292.983,129.200 295.964 C 129.200 298.540,129.437 300.264,129.726 299.795 C 130.484 298.570,131.482 307.590,130.907 310.464 C 130.642 311.792,130.729 312.691,131.102 312.460 C 131.475 312.230,132.120 314.552,132.536 317.621 C 132.951 320.689,133.049 323.200,132.754 323.200 C 132.459 323.200,132.341 325.346,132.492 327.969 C 132.720 331.919,132.564 332.659,131.583 332.283 C 130.933 332.033,130.400 332.249,130.400 332.762 C 130.400 333.308,129.985 333.435,129.400 333.070 C 127.803 332.072,126.135 332.024,125.027 332.943 C 123.762 333.993,123.668 336.800,124.898 336.800 C 125.530 336.800,125.510 337.145,124.829 337.965 C 123.727 339.293,124.465 341.101,125.779 340.289 C 126.297 339.969,126.417 340.125,126.076 340.676 C 125.762 341.184,124.087 341.600,122.353 341.600 L 119.200 341.600 119.044 328.600 C 118.958 321.450,118.829 314.244,118.757 312.586 C 118.563 308.083,119.236 305.200,120.172 306.526 C 120.686 307.254,120.770 306.870,120.433 305.333 C 120.145 304.018,120.247 303.258,120.678 303.524 C 121.086 303.776,121.379 303.537,121.330 302.991 C 121.151 301.010,122.557 295.203,123.130 295.557 C 123.454 295.757,123.718 295.308,123.717 294.560 C 123.710 290.065,124.108 288.390,124.800 290.000 C 125.178 290.880,125.513 291.286,125.544 290.902 M96.320 293.919 C 96.084 294.535,96.275 295.276,96.745 295.566 C 97.215 295.857,97.600 295.669,97.600 295.149 C 97.600 294.425,97.864 294.423,98.733 295.145 C 99.623 295.883,99.949 295.815,100.252 294.827 C 100.540 293.886,100.600 293.926,100.490 294.984 C 100.398 295.862,99.803 296.306,98.922 296.154 C 97.582 295.921,97.577 296.022,98.843 297.954 C 100.838 300.998,99.095 300.422,97.000 297.345 C 95.091 294.540,94.698 292.800,95.975 292.800 C 96.401 292.800,96.557 293.304,96.320 293.919 M172.971 295.200 C 173.164 296.520,173.025 297.600,172.661 297.600 C 172.298 297.600,172.000 296.520,172.000 295.200 C 172.000 293.880,172.139 292.800,172.309 292.800 C 172.479 292.800,172.777 293.880,172.971 295.200 M155.988 294.617 C 155.997 293.856,156.457 293.842,158.023 294.556 C 159.515 295.236,159.777 295.659,159.023 296.168 C 158.415 296.579,159.181 296.656,160.908 296.358 C 162.676 296.053,164.028 296.198,164.356 296.728 C 164.652 297.208,164.453 297.600,163.914 297.600 C 163.375 297.600,163.165 297.831,163.447 298.114 C 163.730 298.397,164.510 298.173,165.181 297.616 C 166.218 296.755,166.400 296.903,166.400 298.604 C 166.400 301.517,165.114 302.174,158.160 302.818 C 151.229 303.459,149.678 302.638,149.625 298.298 C 149.589 295.263,153.886 292.628,155.388 294.764 C 155.773 295.312,155.980 295.262,155.988 294.617 M111.595 305.770 C 111.515 308.284,111.713 310.178,112.034 309.979 C 112.355 309.781,112.905 311.684,113.257 314.209 C 113.608 316.734,114.015 319.520,114.162 320.400 C 115.485 328.358,114.658 337.407,112.873 334.517 C 112.013 333.126,108.234 332.575,107.510 333.735 C 106.407 335.502,106.475 336.800,107.671 336.800 C 108.292 336.800,108.800 337.340,108.800 338.000 C 108.800 338.660,108.419 339.200,107.953 339.200 C 107.487 339.200,107.326 338.844,107.594 338.409 C 107.875 337.956,107.553 337.822,106.842 338.095 C 106.159 338.357,105.600 338.173,105.600 337.686 C 105.600 337.199,104.900 336.800,104.045 336.800 C 101.337 336.800,99.999 333.755,100.012 327.622 C 100.021 323.697,100.259 322.362,100.800 323.200 C 101.402 324.132,101.578 323.898,101.588 322.153 C 101.596 320.711,101.282 320.102,100.714 320.453 C 100.140 320.808,99.986 320.474,100.276 319.500 C 100.523 318.675,100.969 316.976,101.268 315.724 C 101.679 314.005,101.997 313.711,102.568 314.524 C 103.098 315.277,103.220 314.939,102.974 313.400 C 102.780 312.190,102.970 311.200,103.397 311.200 C 103.823 311.200,103.957 310.641,103.695 309.958 C 103.422 309.247,103.556 308.925,104.009 309.206 C 104.663 309.610,104.971 308.271,104.759 305.948 C 104.693 305.222,108.559 302.400,109.619 302.400 C 110.238 302.400,110.438 301.624,110.176 300.251 C 109.950 299.069,109.993 297.539,110.271 296.851 C 111.004 295.043,111.772 300.218,111.595 305.770 M230.400 314.047 C 230.400 322.187,230.190 324.000,229.245 324.000 C 227.818 324.000,225.243 320.519,226.388 320.137 C 226.837 319.988,227.175 317.484,227.144 314.533 C 227.105 310.812,226.880 309.684,226.400 310.800 C 226.022 311.680,225.687 311.916,225.656 311.323 C 225.625 310.731,226.408 309.113,227.395 307.726 C 228.382 306.339,229.078 304.718,228.942 304.122 C 228.804 303.523,229.074 303.275,229.546 303.567 C 230.077 303.895,230.400 307.859,230.400 314.047 M170.913 307.200 C 172.030 307.200,172.679 307.549,172.400 308.000 C 171.731 309.083,173.062 309.018,174.165 307.915 C 174.812 307.268,175.037 307.321,174.999 308.115 C 174.864 310.980,175.271 312.144,176.273 311.760 C 177.628 311.240,179.764 312.503,178.933 313.333 C 178.592 313.675,177.978 313.424,177.569 312.777 C 177.159 312.130,176.819 311.978,176.812 312.440 C 176.806 312.902,177.193 313.673,177.674 314.154 C 178.799 315.279,177.123 318.694,175.836 317.899 C 175.344 317.595,175.177 317.715,175.458 318.169 C 175.735 318.619,175.189 319.664,174.244 320.493 C 173.298 321.322,172.786 321.554,173.104 321.009 C 173.495 320.341,173.281 320.173,172.446 320.493 C 171.766 320.754,171.446 321.351,171.736 321.820 C 172.066 322.354,171.766 322.481,170.931 322.161 C 170.199 321.880,169.600 321.965,169.600 322.350 C 169.600 322.960,166.120 322.300,162.400 320.984 C 161.740 320.751,160.508 320.427,159.663 320.264 C 158.817 320.101,157.709 319.622,157.200 319.200 C 156.691 318.778,155.583 318.320,154.737 318.184 C 152.373 317.804,149.939 316.195,150.650 315.483 C 151.000 315.133,151.608 315.365,152.000 316.000 C 152.392 316.635,152.976 316.890,153.298 316.569 C 153.620 316.247,153.189 315.426,152.342 314.744 C 150.911 313.594,151.102 313.529,155.000 313.835 L 159.200 314.165 159.200 311.576 C 159.200 308.802,160.461 308.033,165.047 308.011 C 166.557 308.004,167.105 307.693,166.716 307.064 C 166.322 306.426,166.582 306.299,167.534 306.664 C 168.302 306.959,169.823 307.200,170.913 307.200 M154.000 308.800 C 153.728 309.240,152.966 309.600,152.306 309.600 C 151.646 309.600,151.328 309.240,151.600 308.800 C 151.872 308.360,152.634 308.000,153.294 308.000 C 153.954 308.000,154.272 308.360,154.000 308.800 M229.018 313.600 C 229.018 315.580,229.174 316.390,229.365 315.400 C 229.555 314.410,229.555 312.790,229.365 311.800 C 229.174 310.810,229.018 311.620,229.018 313.600 M197.014 316.429 C 198.656 317.545,199.972 318.895,199.937 319.429 C 199.889 320.160,199.774 320.153,199.470 319.400 C 199.248 318.850,198.647 318.413,198.133 318.429 C 197.620 318.445,198.144 319.255,199.297 320.229 C 202.362 322.817,203.612 325.492,202.039 326.096 C 201.363 326.355,200.999 326.875,201.231 327.250 C 202.925 329.992,189.230 332.186,183.852 330.034 C 178.370 327.841,177.884 325.801,181.568 320.446 C 182.871 318.553,183.771 316.778,183.568 316.502 C 183.366 316.226,183.405 316.145,183.657 316.323 C 183.908 316.501,185.078 316.143,186.257 315.528 C 189.567 313.801,193.651 314.143,197.014 316.429 M226.151 318.200 C 225.950 318.970,225.786 318.340,225.786 316.800 C 225.786 315.260,225.950 314.630,226.151 315.400 C 226.353 316.170,226.353 317.430,226.151 318.200 M281.046 324.400 C 281.324 326.234,281.250 327.088,280.872 326.400 C 280.510 325.740,279.999 323.580,279.737 321.600 C 279.156 317.220,280.343 319.759,281.046 324.400 M152.000 323.864 C 152.000 324.228,152.630 324.524,153.400 324.521 C 160.544 324.490,163.283 326.144,162.644 330.107 C 162.343 331.974,162.449 332.177,163.213 331.200 C 164.011 330.179,164.080 330.219,163.675 331.465 C 163.414 332.271,163.200 333.643,163.200 334.513 C 163.200 335.517,162.858 335.883,162.264 335.516 C 161.624 335.120,161.500 335.384,161.871 336.353 C 162.425 337.796,160.950 344.000,160.052 344.000 C 159.780 344.000,159.631 345.530,159.721 347.400 C 159.811 349.270,159.703 349.967,159.480 348.949 C 159.093 347.181,158.988 347.155,157.124 348.376 C 153.110 351.006,147.696 344.635,150.805 340.940 C 151.902 339.636,152.794 337.901,152.788 337.085 C 152.777 335.833,152.654 335.789,152.000 336.800 C 151.366 337.782,151.222 337.690,151.212 336.298 C 151.206 335.362,150.664 334.151,150.009 333.607 C 149.354 333.064,149.015 332.299,149.256 331.909 C 149.497 331.519,149.313 331.200,148.847 331.200 C 147.624 331.200,147.805 329.053,149.291 325.921 C 150.475 323.425,152.000 322.267,152.000 323.864 M221.579 327.970 C 222.355 328.461,222.991 328.388,223.440 327.758 C 223.827 327.214,223.903 328.527,223.616 330.800 C 222.039 343.292,222.055 343.586,224.367 344.639 C 225.553 345.180,226.280 345.254,226.004 344.806 C 225.730 344.363,225.887 344.000,226.353 344.000 C 226.819 344.000,227.143 343.730,227.073 343.400 C 226.686 341.571,228.272 339.698,228.887 341.258 C 229.245 342.168,229.457 340.590,229.404 337.410 C 229.354 334.445,229.558 331.775,229.857 331.476 C 230.156 331.178,230.400 333.534,230.400 336.713 C 230.400 342.453,230.376 342.519,226.852 346.247 L 223.304 350.000 216.252 350.000 C 209.496 350.000,200.000 346.571,200.000 344.131 C 200.000 343.828,199.190 343.224,198.200 342.790 C 196.819 342.184,196.359 341.256,196.225 338.800 C 196.103 336.584,196.244 336.074,196.685 337.142 C 197.270 338.562,197.362 338.574,197.854 337.291 C 198.148 336.525,198.751 336.123,199.194 336.397 C 199.637 336.670,200.016 336.423,200.035 335.847 C 200.055 335.271,200.787 336.156,201.662 337.814 C 203.745 341.762,206.913 340.840,206.086 336.526 C 205.715 334.590,205.805 334.280,206.468 335.200 C 207.134 336.121,207.231 335.796,206.887 333.800 C 206.621 332.255,206.776 331.200,207.267 331.200 C 207.722 331.200,207.839 331.613,207.528 332.117 C 207.124 332.770,207.627 332.868,209.281 332.458 C 210.556 332.141,211.721 331.546,211.868 331.136 C 212.016 330.726,212.428 330.570,212.785 330.791 C 213.142 331.011,214.461 330.656,215.717 330.001 C 216.973 329.346,218.471 328.808,219.047 328.805 C 219.623 328.802,219.872 328.440,219.600 328.000 C 218.982 327.000,220.020 326.984,221.579 327.970 M120.000 333.600 C 120.000 335.947,120.147 337.717,120.327 337.533 C 120.936 336.913,121.139 330.472,120.567 329.901 C 120.255 329.589,120.000 331.253,120.000 333.600 M174.099 331.040 C 173.881 331.392,174.490 332.170,175.452 332.768 C 177.093 333.790,177.126 333.768,176.000 332.405 C 174.846 331.008,174.900 331.004,177.426 332.310 C 178.871 333.057,179.855 333.988,179.613 334.379 C 179.372 334.770,179.595 335.350,180.111 335.668 C 180.696 336.030,180.833 335.900,180.476 335.324 C 180.162 334.816,180.287 334.400,180.753 334.400 C 181.219 334.400,181.630 334.850,181.667 335.400 C 181.703 335.950,181.832 337.300,181.953 338.400 C 182.388 342.369,173.848 350.837,171.115 349.147 C 170.528 348.785,170.361 348.890,170.688 349.419 C 171.339 350.471,168.104 351.640,167.197 350.679 C 166.414 349.851,165.783 342.419,166.535 342.883 C 167.246 343.323,168.301 338.578,168.117 335.775 C 167.890 332.319,169.303 330.400,172.075 330.400 C 173.406 330.400,174.316 330.688,174.099 331.040 M181.288 356.297 C 181.029 358.554,180.759 362.978,180.689 366.129 C 180.588 370.661,180.329 371.769,179.448 371.431 C 178.784 371.176,178.428 371.447,178.567 372.102 C 179.048 374.368,173.693 373.948,172.819 371.651 C 172.390 370.523,171.671 369.600,171.220 369.600 C 170.769 369.600,170.400 369.086,170.400 368.457 C 170.400 366.784,168.135 364.798,166.807 365.308 C 165.393 365.851,164.451 368.675,163.843 374.200 C 163.724 375.283,160.645 375.578,159.667 374.600 C 159.337 374.270,158.737 373.955,158.333 373.900 C 157.930 373.845,157.330 373.722,157.000 373.626 C 156.670 373.530,154.960 373.506,153.200 373.573 C 147.780 373.779,146.389 371.737,146.743 364.096 C 147.023 358.037,148.081 354.400,149.563 354.400 C 149.951 354.400,150.898 354.159,151.666 353.864 C 152.618 353.499,152.878 353.626,152.484 354.264 C 152.114 354.863,152.499 355.200,153.553 355.200 C 154.459 355.200,155.200 355.584,155.200 356.054 C 155.200 356.544,155.882 356.691,156.800 356.400 C 157.680 356.121,158.400 356.231,158.400 356.645 C 158.400 357.900,172.860 357.198,173.659 355.904 C 174.035 355.297,174.625 354.769,174.971 354.731 C 176.456 354.568,178.850 353.238,179.449 352.244 C 180.775 350.043,181.758 352.210,181.288 356.297 M202.900 355.215 C 202.955 355.647,203.045 356.561,203.100 357.247 C 203.155 357.933,203.589 358.254,204.065 357.960 C 204.582 357.641,204.867 358.025,204.773 358.913 C 204.336 363.045,205.432 363.441,208.584 360.289 C 210.942 357.930,217.129 355.979,220.315 356.588 C 221.643 356.842,222.400 356.631,222.400 356.008 C 222.400 355.469,222.917 355.227,223.548 355.469 C 224.180 355.712,224.810 355.581,224.948 355.178 C 225.087 354.776,225.920 354.335,226.800 354.200 C 227.680 354.065,228.850 353.673,229.400 353.330 C 230.057 352.920,230.419 353.202,230.456 354.153 C 230.506 355.447,230.587 355.430,231.215 354.000 C 231.670 352.963,231.901 355.465,231.871 361.106 C 231.844 366.415,231.553 369.381,231.125 368.706 C 230.441 367.625,230.083 368.780,230.179 371.763 C 230.196 372.295,228.374 373.077,226.105 373.510 C 219.846 374.705,216.800 374.982,216.800 374.355 C 216.800 374.042,216.080 373.598,215.199 373.368 C 214.318 373.138,213.781 373.245,214.004 373.607 C 214.228 373.969,213.312 373.851,211.970 373.344 C 209.969 372.588,209.387 372.637,208.749 373.611 C 208.079 374.633,207.803 374.581,206.785 373.247 C 206.133 372.393,205.600 372.033,205.599 372.447 C 205.599 372.861,204.699 373.252,203.599 373.315 C 202.500 373.379,201.594 373.019,201.588 372.515 C 201.581 372.012,201.227 372.140,200.800 372.800 C 200.142 373.817,200.023 373.780,200.012 372.553 C 200.006 371.757,199.666 371.312,199.258 371.564 C 197.316 372.765,196.537 355.445,198.430 353.164 C 199.434 351.954,202.674 353.441,202.900 355.215 " stroke="none" fill="#000000" fill-rule="evenodd"></path></g></svg>