<svg width="400" height="300" viewBox="0 0 400 300" fill="none" xmlns="http://www.w3.org/2000/svg">
<g clip-path="url(#clip0)">
<path opacity="0.1" d="M40.2335 30.0393C37.744 31.0803 35.1889 32.4166 33.8208 34.759C32.3718 37.2334 32.5452 40.3061 32.815 43.169C35.1658 67.9991 41.3588 94.4063 30.6646 116.898C25.4735 127.81 16.7909 136.554 9.88496 146.463C2.97897 156.373 -2.2352 168.745 0.971147 180.402C4.88659 194.647 19.5002 202.544 29.3504 213.507C35.7978 220.674 40.3183 229.383 46.3341 236.923C52.3498 244.463 60.5931 251.105 70.1967 251.548C84.0087 252.189 95.2463 240.166 108.789 237.381C122.662 234.53 136.632 241.786 147.881 250.472C159.131 259.158 169.362 269.681 182.469 275.104C196.944 281.098 213.261 280.181 228.499 283.782C242.372 287.064 255.144 294.045 268.917 297.766C282.691 301.488 298.834 301.262 309.505 291.757C323.414 279.326 322.319 257.184 331.202 240.741C339.453 225.463 355.604 216.342 366.476 202.836C386.038 178.526 385.398 141.37 368.788 114.932C352.178 88.494 322.092 72.4857 291.327 68.3176C277.453 66.4414 263.167 66.6978 249.829 62.4286C214.128 51.0081 192.882 10.0882 156.433 1.57327C133.264 -3.83014 110.731 5.52774 90.9956 17.0454C73.8655 27.0443 58.0612 22.5848 40.2335 30.0393Z" fill="#E36D6D"/>
<path d="M75.0255 110.255C75.0255 110.255 61.8726 122.767 47.7561 123.14C41.8283 123.259 36.0987 125.313 31.4276 128.994C29.2198 130.754 27.1764 132.713 25.3232 134.848" stroke="#535461" stroke-width="2" stroke-miterlimit="10"/>
<path d="M16.421 135.155C18.317 134.184 25.5544 134.829 25.5544 134.829C25.5544 134.829 21.8009 141.102 19.9048 142.074C19.4507 142.345 18.9461 142.519 18.4224 142.586C17.8987 142.653 17.367 142.61 16.8602 142.461C16.3534 142.312 15.8825 142.06 15.4765 141.72C15.0705 141.38 14.7381 140.959 14.5 140.484C14.262 140.009 14.1232 139.49 14.0924 138.959C14.0616 138.428 14.1394 137.896 14.3209 137.396C14.5025 136.896 14.7839 136.44 15.1478 136.054C15.5117 135.669 15.9503 135.363 16.4364 135.155H16.421Z" fill="#E36D6D"/>
<path d="M24.0399 124.065C26.1557 124.29 31.8824 128.796 31.8824 128.796C31.8824 128.796 25.331 132.005 23.2345 131.783C22.2537 131.634 21.3677 131.109 20.7611 130.318C20.1544 129.527 19.8738 128.531 19.9776 127.536C20.0813 126.542 20.5615 125.626 21.3182 124.979C22.0749 124.333 23.0497 124.005 24.0399 124.065Z" fill="#E36D6D"/>
<path d="M42.1065 115.126C43.8176 116.397 46.5075 123.202 46.5075 123.202C46.5075 123.202 39.2586 122.647 37.5475 121.381C36.7762 120.752 36.2748 119.849 36.1475 118.858C36.0202 117.867 36.2768 116.864 36.8638 116.059C37.4509 115.253 38.3234 114.707 39.2998 114.534C40.2762 114.36 41.2814 114.572 42.1065 115.126Z" fill="#E36D6D"/>
<path d="M57.2865 111.471C59.1865 112.431 62.9786 118.681 62.9786 118.681C62.9786 118.681 55.7412 119.368 53.8413 118.409C53.3619 118.198 52.9302 117.891 52.5723 117.506C52.2145 117.122 51.9381 116.668 51.76 116.172C51.5819 115.676 51.5057 115.149 51.5362 114.623C51.5667 114.096 51.7032 113.582 51.9373 113.11C52.1714 112.639 52.4983 112.22 52.8981 111.88C53.2979 111.54 53.7621 111.286 54.2626 111.132C54.7631 110.979 55.2893 110.93 55.8091 110.988C56.329 111.046 56.8317 111.211 57.2865 111.471Z" fill="#E36D6D"/>
<path d="M35.9096 135.87C36.5416 133.823 34.6918 126.737 34.6918 126.737C34.6918 126.737 29.1886 131.523 28.5565 133.57C28.3784 134.064 28.3017 134.59 28.331 135.115C28.3602 135.64 28.4948 136.153 28.7267 136.624C28.9586 137.095 29.2829 137.513 29.6799 137.854C30.077 138.195 30.5385 138.451 31.0367 138.607C31.5348 138.763 32.0591 138.815 32.5778 138.76C33.0965 138.706 33.5989 138.546 34.0545 138.29C34.5101 138.034 34.9094 137.688 35.2283 137.272C35.5471 136.856 35.7789 136.379 35.9096 135.87Z" fill="#E36D6D"/>
<path d="M53.61 131.352C53.61 129.208 49.737 123.008 49.737 123.008C49.737 123.008 45.9063 129.223 45.9102 131.375C45.9132 132.406 46.3222 133.393 47.0471 134.119C47.772 134.845 48.7534 135.251 49.7755 135.248C50.7976 135.245 51.7766 134.833 52.4972 134.102C53.2177 133.372 53.6208 132.382 53.6177 131.352H53.61Z" fill="#E36D6D"/>
<path d="M70.2161 124.609C70.5706 122.495 67.7959 115.725 67.7959 115.725C67.7959 115.725 62.9748 121.21 62.6241 123.323C62.5057 124.314 62.7705 125.314 63.3637 126.113C63.9569 126.913 64.8329 127.452 65.8098 127.618C66.7867 127.784 67.7895 127.564 68.6099 127.005C69.4304 126.445 70.0056 125.588 70.2161 124.613V124.609Z" fill="#E36D6D"/>
<path d="M92.1171 77.12C92.1171 77.12 76.2742 68.3487 71.5649 54.912C69.6301 49.2618 65.9289 44.3969 61.017 41.048C58.6731 39.4759 56.1912 38.1236 53.6024 37.0081" stroke="#535461" stroke-width="2" stroke-miterlimit="10"/>
<path d="M50.5964 28.5592C52.0955 30.0781 53.7102 37.2218 53.7102 37.2218C53.7102 37.2218 46.6347 35.5514 45.1356 34.0287C44.4735 33.2876 44.1196 32.3183 44.1471 31.3215C44.1745 30.3247 44.5812 29.3767 45.283 28.6738C45.9848 27.9709 46.9279 27.5669 47.917 27.5456C48.9061 27.5243 49.8654 27.8872 50.5964 28.5592Z" fill="#E36D6D"/>
<path d="M63.4102 32.4554C63.8495 34.5531 61.3561 41.4326 61.3561 41.4326C61.3561 41.4326 56.3192 36.1535 55.8799 34.052C55.7495 33.5437 55.7226 33.0141 55.801 32.4951C55.8793 31.9761 56.0612 31.4785 56.3356 31.0324C56.61 30.5862 56.9714 30.2007 57.3977 29.8992C57.8241 29.5978 58.3066 29.3865 58.8162 29.2783C59.3258 29.17 59.8519 29.167 60.3627 29.2694C60.8735 29.3718 61.3584 29.5775 61.7882 29.8741C62.2179 30.1707 62.5835 30.552 62.863 30.995C63.1424 31.438 63.3299 31.9335 63.4141 32.4515L63.4102 32.4554Z" fill="#E36D6D"/>
<path d="M77.3995 47.0575C76.7289 49.0891 71.1294 53.7622 71.1294 53.7622C71.1294 53.7622 69.426 46.6418 70.0965 44.6063C70.419 43.6276 71.114 42.818 72.0286 42.3558C72.9432 41.8936 74.0025 41.8165 74.9735 42.1416C75.9445 42.4666 76.7476 43.1671 77.2062 44.089C77.6647 45.0109 77.7412 46.0787 77.4187 47.0575H77.3995Z" fill="#E36D6D"/>
<path d="M85.5233 60.4786C85.2034 62.5957 80.4671 68.1544 80.4671 68.1544C80.4671 68.1544 77.5922 61.4264 77.912 59.3093C77.9653 58.7861 78.1235 58.2793 78.3769 57.8195C78.6303 57.3597 78.9737 56.9566 79.3863 56.6346C79.7989 56.3126 80.272 56.0784 80.7771 55.9462C81.2821 55.814 81.8086 55.7866 82.3244 55.8656C82.8403 55.9446 83.3349 56.1283 83.7782 56.4057C84.2215 56.6831 84.6044 57.0484 84.9035 57.4794C85.2026 57.9103 85.4117 58.398 85.5183 58.9129C85.6248 59.4278 85.6265 59.9591 85.5233 60.4747V60.4786Z" fill="#E36D6D"/>
<path d="M55.9108 47.4731C58.038 47.4498 64.1579 43.4953 64.1579 43.4953C64.1579 43.4953 57.9494 39.6885 55.8221 39.7118C54.8 39.7236 53.8245 40.1443 53.1101 40.8811C52.3956 41.618 52.0009 42.6108 52.0126 43.641C52.0244 44.6713 52.4417 45.6546 53.1727 46.3747C53.9038 47.0948 54.8887 47.4927 55.9108 47.4809V47.4731Z" fill="#E36D6D"/>
<path d="M65.6069 63.0657C67.6263 62.4015 72.2932 56.7844 72.2932 56.7844C72.2932 56.7844 65.2369 55.0247 63.2175 55.689C62.7192 55.8323 62.2547 56.0755 61.8517 56.404C61.4488 56.7324 61.1157 57.1395 60.8724 57.6007C60.6291 58.0619 60.4806 58.5678 60.4358 59.0882C60.3909 59.6087 60.4507 60.1328 60.6115 60.6294C60.7722 61.126 61.0307 61.5848 61.3714 61.9784C61.7121 62.372 62.1281 62.6923 62.5945 62.9201C63.0608 63.1479 63.568 63.2785 64.0855 63.3042C64.6031 63.3299 65.1206 63.2501 65.6069 63.0696V63.0657Z" fill="#E36D6D"/>
<path d="M77.0912 76.918C79.1953 76.6073 84.7371 71.8681 84.7371 71.8681C84.7371 71.8681 78.0777 68.9314 75.9774 69.2421C75.4601 69.2959 74.959 69.4546 74.5042 69.7087C74.0494 69.9628 73.6503 70.3071 73.3309 70.7208C73.0116 71.1345 72.7787 71.6091 72.6461 72.1159C72.5135 72.6227 72.4841 73.1514 72.5595 73.67C72.635 74.1886 72.8138 74.6865 73.0852 75.1336C73.3566 75.5807 73.715 75.9678 74.1387 76.2717C74.5625 76.5755 75.0429 76.7897 75.5509 76.9015C76.059 77.0132 76.5842 77.0202 77.095 76.9219L77.0912 76.918Z" fill="#E36D6D"/>
<path d="M201.145 289.947C278.192 289.947 340.652 226.989 340.652 149.326C340.652 71.6634 278.192 8.70532 201.145 8.70532C124.097 8.70532 61.6375 71.6634 61.6375 149.326C61.6375 226.989 124.097 289.947 201.145 289.947Z" fill="url(#paint0_linear)"/>
<path d="M201.145 287.616C276.915 287.616 338.339 225.702 338.339 149.326C338.339 72.9506 276.915 11.036 201.145 11.036C125.374 11.036 63.9498 72.9506 63.9498 149.326C63.9498 225.702 125.374 287.616 201.145 287.616Z" fill="#E36D6D"/>
<path d="M201.145 259.259C261.378 259.259 310.207 210.04 310.207 149.326C310.207 88.6118 261.378 39.3932 201.145 39.3932C140.911 39.3932 92.0824 88.6118 92.0824 149.326C92.0824 210.04 140.911 259.259 201.145 259.259Z" fill="#DDE1EC"/>
<path opacity="0.3" d="M204.228 58.816H198.062V155.93H204.228V58.816Z" fill="#535461"/>
<g opacity="0.1">
<path opacity="0.1" d="M294.792 146.995H207.696V154.764H294.792V146.995Z" fill="black"/>
<path opacity="0.1" d="M146.206 117.929L142.63 124.811L197.431 153.739L201.007 146.856L146.206 117.929Z" fill="black"/>
<path opacity="0.1" d="M201.145 162.533C207.53 162.533 212.706 157.316 212.706 150.88C212.706 144.444 207.53 139.226 201.145 139.226C194.759 139.226 189.583 144.444 189.583 150.88C189.583 157.316 194.759 162.533 201.145 162.533Z" fill="black"/>
</g>
<path d="M294.792 145.441H207.696V153.211H294.792V145.441Z" fill="#535461"/>
<path d="M201.032 145.311L146.231 116.384L142.655 123.266L197.457 152.194L201.032 145.311Z" fill="#535461"/>
<path d="M201.145 160.98C207.53 160.98 212.706 155.762 212.706 149.326C212.706 142.89 207.53 137.672 201.145 137.672C194.759 137.672 189.583 142.89 189.583 149.326C189.583 155.762 194.759 160.98 201.145 160.98Z" fill="#535461"/>
<g opacity="0.1">
<path opacity="0.1" d="M100.553 162.533C100.553 101.818 149.381 52.6007 209.615 52.6007C226.522 52.5856 243.199 56.5387 258.327 64.1468C273.455 71.755 286.618 82.8092 296.772 96.4339C278.213 62.4363 242.372 39.3932 201.137 39.3932C140.902 39.3932 92.0747 88.6104 92.0747 149.326C92.0393 173.178 99.7351 196.388 113.991 215.425C105.15 199.222 100.527 181.025 100.553 162.533Z" fill="black"/>
</g>
<path d="M301.913 68.4574C300.619 67.2027 289.72 75.4496 289.72 75.4496C289.72 75.4496 285.839 76.1644 286.764 78.8486C287.689 81.5328 282.698 96.566 282.698 96.566L280.667 93.7031C280.864 90.343 279.947 87.9618 279.053 86.4779C278.979 86.3574 278.906 86.2409 278.833 86.1321L279.188 86.0078C279.053 84.1743 276.143 81.3813 274.598 80.014C274.598 79.8158 274.598 79.6255 274.598 79.4235C274.694 77.2326 275.565 74.9213 274.598 72.9363C273.503 70.6716 270.301 69.5334 270.031 67.0473C269.869 65.5634 270.863 64.2233 271.303 62.7937C272.351 59.3753 270.174 55.887 268.093 52.9425C267.388 51.8386 266.53 50.8418 265.545 49.9825C264.607 49.2913 263.577 48.7368 262.485 48.3354C259.437 47.0924 256.319 46.467 253.175 45.6163C250.157 44.8083 247.375 44.4237 244.311 45.4376C243.584 45.6352 242.92 46.0193 242.384 46.5524C241.656 47.376 241.559 48.5491 241.081 49.5319C240.311 51.1129 238.65 52.0568 237.181 53.0707C235.713 54.0846 234.241 55.4753 234.233 57.2233C234.233 59.7055 237.046 61.2671 237.987 63.5784C238.865 65.7305 237.987 68.1272 237.497 70.3958C237.293 71.129 237.273 71.9021 237.44 72.645C237.634 73.1986 237.926 73.712 238.303 74.1599C238.885 74.9369 239.509 75.6594 240.129 76.3974L239.844 76.5101C234.672 75.974 231.347 82.5933 231.347 82.5933C231.586 82.6438 231.813 82.7021 232.037 82.7681L231.817 83.0556C230.254 85.1013 228.977 87.3533 228.021 89.7486L223.782 95.4745C223.782 95.4745 222.857 81.156 225.077 77.9357C227.296 74.7154 223.046 72.746 223.046 72.746C223.046 72.746 213.797 62.3664 212.513 63.2599C211.23 64.1533 215.654 75.4302 219.535 77.221C219.535 77.221 219.92 80.7986 219.149 83.1255C218.683 84.5977 216.194 100.128 216.194 100.128C216.194 100.128 213.978 113.192 224.14 106.732C230.742 102.544 235.008 95.3346 237.181 90.8052C237.333 90.4867 237.475 90.1824 237.609 89.8924C237.71 90.3728 237.778 90.8594 237.813 91.3491L238.199 106.316C238.296 110.018 237.495 113.688 235.863 117.007L231.335 126.263L231.84 126.419L231.536 126.862C228.553 131.286 223.481 141.234 233.921 146.304L247.795 148.095L247.055 151.672C247.055 151.672 241.328 162.588 239.663 170.104C238.629 174.707 237.014 179.158 234.857 183.347L235.285 183.576C235.197 183.677 235.104 183.782 235.015 183.891C234.174 184.844 233.618 186.019 233.412 187.278L231.532 189.966C231.532 189.966 230.792 201.06 232.272 203.749C233.081 205.217 235.767 206.149 238.052 206.693C241.444 207.505 244.18 203.974 242.38 201.064L242.357 201.025H242.322C241.937 199.219 240.758 193.614 241.143 191.485C241.251 190.879 241.351 190.277 241.401 189.663C241.494 188.857 241.737 188.075 242.118 187.36C242.18 187.239 242.245 187.123 242.311 187.006L242.511 187.092C243.132 187.36 243.744 187.612 244.326 187.834C243.424 188.661 242.785 190.374 243.555 193.897C243.555 193.897 243.629 202.711 244.295 204.098C244.962 205.485 252.423 207.318 253.718 205.889C255.013 204.459 252.886 199.534 252.886 199.534L252.82 199.58C252.392 196.725 251.864 191.613 253.163 189.601C253.687 188.789 254.196 187.95 254.651 187.165L254.932 186.68C257.344 187.892 259.896 188.805 261.291 188.172C261.291 188.172 267.387 173.853 267.017 172.066C266.647 170.279 276.44 150.052 276.44 150.052C276.44 150.052 284.752 140.729 274.594 134.304C271.368 132.257 269.017 130.882 267.31 129.954L265.88 122.418C265.145 118.467 265.277 114.402 266.266 110.508L267.807 104.58L267.935 104.075C267.935 104.075 271.815 96.0222 271.63 92.2619C271.616 91.9699 271.649 91.6773 271.727 91.3957C271.769 91.5744 271.815 91.7608 271.865 91.9551C272.885 95.8633 274.228 99.6784 275.881 103.36C278.829 110.065 283.203 109.533 285.6 108.581C286.113 108.381 286.569 108.055 286.926 107.633C287.283 107.212 287.531 106.707 287.647 106.165C288.51 101.993 290.88 90.3041 291.03 87.0761C291.165 84.5519 291.474 82.0403 291.955 79.5595C298.036 75.974 303.208 69.7121 301.913 68.4574Z" fill="url(#paint1_linear)"/>
<path d="M256.674 183.137C256.674 183.137 255.861 184.78 254.747 186.754C254.311 187.531 253.826 188.366 253.329 189.17C251.568 192.009 253.329 201.057 253.329 201.057L249.475 201.589L245.621 199.646L244.916 193.082V188.28L249.309 183.327L251.236 181.183L256.674 183.137Z" fill="#F8BDC5"/>
<g opacity="0.1">
<path opacity="0.1" d="M256.674 183.137C256.674 183.137 255.861 184.78 254.747 186.754C253.045 185.837 251.401 184.818 249.822 183.7L249.483 183.46L249.302 183.327L251.228 181.183L256.674 183.137Z" fill="black"/>
</g>
<path d="M275.515 149.955C275.515 149.955 266.185 170.003 266.54 171.779C266.894 173.554 261.083 187.748 261.083 187.748C259.757 188.377 257.321 187.472 255.024 186.272C253.292 185.341 251.619 184.304 250.015 183.164L249.675 182.924L249.471 182.776L264.786 140.015L251.236 129.997L250.234 129.255L244.176 124.748L262.674 128.12C262.674 128.12 263.318 128.039 266.721 129.958C268.355 130.878 270.625 132.257 273.762 134.332C283.431 140.73 275.515 149.955 275.515 149.955Z" fill="#5E52AD"/>
<g opacity="0.03">
<path opacity="0.03" d="M275.515 149.955C275.515 149.955 266.185 170.003 266.54 171.779C266.894 173.554 261.083 187.748 261.083 187.748C259.757 188.377 257.321 187.472 255.024 186.272C253.292 185.341 251.619 184.304 250.015 183.164L249.675 182.924L249.471 182.776L264.786 140.015L251.236 129.997L250.234 129.255L244.176 124.748L262.674 128.12C262.674 128.12 263.318 128.039 266.721 129.958C268.355 130.878 270.625 132.257 273.762 134.332C283.431 140.73 275.515 149.955 275.515 149.955Z" fill="black"/>
</g>
<path d="M247.17 186.684C247.17 186.684 242.592 185.973 244.18 193.427C244.18 193.427 244.249 202.168 244.885 203.527C245.521 204.887 252.631 206.72 253.861 205.302C255.09 203.885 253.067 199.006 253.067 199.006C253.067 199.006 247.876 202.82 246.465 198.738C245.055 194.655 247.17 186.684 247.17 186.684Z" fill="#5D3E53"/>
<path d="M243.999 185.266C243.499 185.745 243.093 186.314 242.8 186.944C242.437 187.657 242.205 188.431 242.118 189.228C242.072 189.834 241.975 190.436 241.875 191.034C241.436 193.563 243.12 201.057 243.12 201.057L236.43 202.121L233.967 199.46L233.439 193.606C234.097 191.599 234.452 189.504 234.495 187.391C234.495 185.864 235.266 184.501 236.037 183.506C236.559 182.843 237.158 182.244 237.821 181.723C237.821 181.723 245.409 184.023 243.999 185.266Z" fill="#F8BDC5"/>
<g opacity="0.1">
<path opacity="0.1" d="M243.999 185.266C243.499 185.745 243.093 186.314 242.8 186.944C240.06 185.697 237.181 184.124 236.133 183.541L236.052 183.498C236.575 182.835 237.174 182.236 237.836 181.715C237.836 181.715 245.409 184.023 243.999 185.266Z" fill="black"/>
</g>
<path d="M265.653 144.633C265.653 144.633 261.256 152.974 258.435 159.892C256.585 164.437 252.762 175.259 250.342 182.15L249.987 183.168C248.924 186.218 248.215 188.28 248.215 188.28C247.746 188.283 247.279 188.214 246.831 188.074C246.415 187.962 245.949 187.81 245.452 187.624L244.893 187.41C244.338 187.193 243.737 186.94 243.162 186.676C240.365 185.417 237.382 183.778 236.299 183.18L235.89 182.951C237.956 178.779 239.498 174.365 240.48 169.809C242.064 162.359 247.521 151.552 247.521 151.552L248.226 148.001L235.023 146.226C225.077 141.215 229.909 131.337 232.749 126.951C233.234 126.19 233.757 125.455 234.318 124.748L244.881 127.079C244.881 127.079 246.546 127.615 250.246 129.266L251.945 130.043C254.019 131.003 256.57 132.238 259.653 133.823C270.05 139.121 265.653 144.633 265.653 144.633Z" fill="#5E52AD"/>
<path d="M243.054 200.524C243.431 201.164 243.612 201.902 243.573 202.645C243.534 203.388 243.278 204.103 242.837 204.699C242.396 205.296 241.79 205.747 241.095 205.997C240.4 206.247 239.647 206.283 238.931 206.103C236.769 205.563 234.206 204.638 233.435 203.181C232.029 200.52 232.73 189.519 232.73 189.519L234.58 186.769C234.58 186.769 233.613 198.924 235.902 199.977C238.191 201.029 243.031 200.47 243.031 200.47L243.054 200.524Z" fill="#5D3E53"/>
<path d="M244.927 46.2262C244.224 46.4234 243.586 46.8054 243.078 47.3333C242.384 48.149 242.307 49.3144 241.837 50.2894C241.104 51.8432 239.524 52.7949 238.122 53.7855C236.719 54.7761 235.32 56.1706 235.312 57.9031C235.312 60.3659 238.01 61.912 238.889 64.2C239.725 66.3365 238.889 68.7099 238.422 70.9591C238.228 71.6873 238.209 72.4519 238.368 73.1888C238.552 73.7355 238.831 74.2446 239.193 74.6922C240.893 77.0229 243.004 79.0895 244.141 81.7426C245.005 83.7587 245.243 85.9845 245.471 88.1715C245.798 91.318 246.126 94.5228 245.533 97.6304C245.475 97.8163 245.475 98.0156 245.533 98.2015C245.634 98.3797 245.793 98.517 245.983 98.5899C247.105 99.1391 248.325 99.4541 249.57 99.5159C250.815 99.5778 252.06 99.3852 253.23 98.9498C254.399 98.5144 255.469 97.8451 256.376 96.9822C257.282 96.1193 258.006 95.0806 258.504 93.9285C259.275 92.1687 259.572 90.0439 261.098 88.9018C261.276 88.7533 261.49 88.6555 261.718 88.6183C262.078 88.6283 262.427 88.7459 262.72 88.9562C264.701 90.0361 267.102 90.0672 269.31 89.6244C270.644 89.3563 272.008 88.8785 272.891 87.8297C274.629 85.7476 273.661 82.6361 273.777 79.9208C273.869 77.7493 274.698 75.4574 273.777 73.4918C272.736 71.2466 269.68 70.12 269.426 67.665C269.272 66.1966 270.22 64.8642 270.64 63.4503C271.638 60.059 269.565 56.6018 267.584 53.6845C266.918 52.5963 266.101 51.6088 265.16 50.7517C264.271 50.0697 263.29 49.5202 262.246 49.1201C259.344 47.8887 256.385 47.2672 253.383 46.4282C250.508 45.6007 247.86 45.2162 244.927 46.2262Z" fill="#85555C"/>
<path d="M259.668 96.904H249.456V80.2237C249.759 78.6217 249.937 76.9982 249.987 75.368C249.987 74.8203 249.987 74.2609 249.987 73.6977C249.891 71.7088 249.483 69.7238 248.411 68.5118C245.594 65.3187 257.564 65.8509 257.564 65.8509C257.931 67.3171 258.408 68.7533 258.99 70.1472C259.857 72.3221 261.011 74.3696 262.42 76.2343C263.659 77.8935 265.248 79.2559 267.071 80.2237C274.101 83.7742 259.668 96.904 259.668 96.904Z" fill="#F8BDC5"/>
<g opacity="0.1">
<path opacity="0.1" d="M258.978 70.1472C257.942 71.51 256.555 72.5611 254.968 73.1869C253.381 73.8127 251.655 73.9893 249.976 73.6977C249.88 71.7088 249.471 69.7238 248.4 68.5118C245.583 65.3187 257.553 65.8509 257.553 65.8509C257.92 67.3171 258.396 68.7533 258.978 70.1472Z" fill="black"/>
</g>
<path d="M251.568 73.3092C256.72 73.3092 260.898 69.0987 260.898 63.9047C260.898 58.7108 256.72 54.5002 251.568 54.5002C246.415 54.5002 242.238 58.7108 242.238 63.9047C242.238 69.0987 246.415 73.3092 251.568 73.3092Z" fill="#F8BDC5"/>
<path d="M290.294 80.049C289.836 82.5099 289.543 84.999 289.416 87.4995C289.273 90.6965 287.015 102.288 286.19 106.425C286.086 106.956 285.853 107.452 285.513 107.87C285.173 108.288 284.736 108.615 284.24 108.822C281.951 109.766 277.789 110.294 274.991 103.648C273.413 99.9904 272.134 96.2099 271.164 92.3436C270.821 91.044 270.564 89.7229 270.393 88.3891L276.559 85.0173C277.14 85.5646 277.631 86.2004 278.016 86.9013C278.868 88.3736 279.743 90.7354 279.558 94.0644L281.484 96.904C281.484 96.904 286.236 81.999 285.338 79.3381C284.44 76.6772 288.155 75.9663 288.155 75.9663C288.155 75.9663 298.541 67.8088 299.775 69.0479C301.008 70.2871 296.102 76.4985 290.294 80.049Z" fill="#F8BDC5"/>
<path d="M239.775 87.146C239.294 88.5339 238.741 89.8954 238.118 91.2248C236.044 95.7192 231.983 102.878 225.693 107.019C216.012 113.406 218.124 100.454 218.124 100.454C218.124 100.454 220.494 85.0561 220.941 83.5994C221.647 81.292 221.292 77.7454 221.292 77.7454C217.596 75.9701 213.373 64.7943 214.602 63.9047C215.831 63.0152 224.622 73.3092 224.622 73.3092C224.622 73.3092 228.672 75.2515 226.549 78.4563C224.425 81.661 225.315 95.8435 225.315 95.8435L229.389 90.1759C230.295 87.811 231.512 85.5795 233.008 83.5411C233.778 82.4807 234.318 81.8397 234.318 81.8397L239.775 87.146Z" fill="#F8BDC5"/>
<g opacity="0.1">
<path opacity="0.1" d="M278.02 86.9013C276.725 87.383 271.711 89.4224 271.156 92.3397C270.813 91.0401 270.556 89.719 270.386 88.3852L276.552 85.0134C277.136 85.5611 277.632 86.1982 278.02 86.9013Z" fill="black"/>
</g>
<g opacity="0.1">
<path opacity="0.1" d="M239.775 87.146C239.294 88.5339 238.741 89.8954 238.118 91.2248C237.879 89.469 236.896 84.9784 233.008 83.5295C233.778 82.469 234.318 81.8281 234.318 81.8281L239.775 87.146Z" fill="black"/>
</g>
<g opacity="0.1">
<path opacity="0.1" d="M259.668 96.904H249.456V80.2237C249.759 78.6217 249.937 76.9982 249.987 75.368C252.088 77.4113 251.567 80.5772 251.567 80.5772L257.024 93.0078L259.668 82.0184L258.789 80.6005L262.412 76.2576C263.652 77.9169 265.24 79.2792 267.064 80.247C274.101 83.7742 259.668 96.904 259.668 96.904Z" fill="black"/>
</g>
<g opacity="0.1">
<path opacity="0.1" d="M266.883 130.964C266.883 130.964 258.882 130.323 251.941 130.02L251.244 129.989C250.257 129.95 249.317 129.919 248.396 129.895C241.66 129.732 234.041 127.359 232.746 126.943C233.232 126.185 233.756 125.452 234.318 124.748L244.881 127.079C244.881 127.079 246.546 127.615 250.246 129.266L244.176 124.748L262.674 128.12C262.674 128.12 263.318 128.039 266.721 129.958L266.883 130.964Z" fill="black"/>
</g>
<path d="M259.668 82.7099L258.79 81.292L262.697 76.5801C262.697 76.5801 270.756 80.5617 272.867 79.6877C272.867 79.6877 277.974 83.9607 278.147 86.4313C278.147 86.4313 270.756 88.9135 270.929 92.6465C271.102 96.3796 267.422 104.355 267.422 104.355L265.881 110.733C264.932 114.599 264.801 118.622 265.495 122.542L266.902 130.439C266.902 130.439 255.811 129.554 248.404 129.375C240.997 129.196 232.561 126.361 232.561 126.361L236.881 117.197C238.439 113.89 239.202 110.26 239.108 106.6L238.723 91.7648C238.723 91.7648 238.372 84.3142 232.557 83.0711C232.557 83.0711 235.725 76.5062 240.65 77.0384C240.65 77.0384 247.826 74.0201 249.957 76.0595C252.088 78.0989 251.564 81.2959 251.564 81.2959L257.021 93.7265L259.668 82.7099Z" fill="#ED677B"/>
<g opacity="0.1">
<path opacity="0.1" d="M244.835 61.9664C246.249 61.9664 247.359 60.4553 248.774 60.533C249.506 60.5718 250.134 61.0418 250.739 61.4653C253.025 63.0611 255.569 64.2441 258.258 64.9613C259.302 65.241 260.408 65.4508 261.456 65.1944C262.505 64.938 263.487 64.1068 263.607 63.023C263.636 62.5453 263.573 62.0664 263.422 61.6129C262.235 57.4457 259.55 53.8738 255.892 51.5946C254.427 50.6895 252.639 49.9981 251.016 50.5652C249.552 51.0741 248.608 52.457 247.548 53.5952C246.749 54.4474 245.842 55.1893 244.85 55.8016C244.08 56.2716 242.924 56.5785 242.48 57.4409C241.644 59.0491 242.958 61.9508 244.835 61.9664Z" fill="black"/>
</g>
<path d="M244.835 61.6128C246.249 61.6128 247.359 60.1018 248.774 60.1794C249.506 60.2183 250.134 60.6883 250.739 61.1117C253.025 62.7076 255.569 63.8905 258.258 64.6078C259.302 64.8875 260.408 65.0973 261.456 64.8409C262.505 64.5845 263.487 63.7532 263.607 62.6694C263.636 62.1918 263.573 61.7129 263.422 61.2594C262.235 57.0921 259.55 53.5203 255.892 51.2411C254.427 50.336 252.639 49.6445 251.016 50.2117C249.552 50.7206 248.608 52.1035 247.548 53.2416C246.749 54.0939 245.842 54.8358 244.85 55.4481C244.08 55.9181 242.924 56.225 242.48 57.0873C241.644 58.7111 242.958 61.5934 244.835 61.6128Z" fill="#85555C"/>
<path opacity="0.05" d="M240.569 102.136C240.569 102.136 249.194 105.33 254.828 102.847L257.645 103.026C257.645 103.026 262.327 106.336 267.279 104.856" fill="black"/>
<path opacity="0.05" d="M281.407 96.8147C281.407 96.8147 280.001 100.186 280.702 101.251L281.407 96.8147Z" fill="black"/>
<path opacity="0.05" d="M225.254 95.7503C225.254 95.7503 225.959 99.1221 225.254 100.186V95.7503Z" fill="black"/>
<path d="M371.243 172.583C371.243 172.583 355.119 188.836 364.221 212.951C373.324 237.066 348.621 277.171 348.621 277.171C348.621 277.171 348.887 277.132 349.392 277.046C382.508 271.153 398.96 232.98 380.546 204.619C373.683 194.072 368.064 181.704 371.243 172.583Z" fill="#E36D6D"/>
<path opacity="0.1" d="M371.243 172.855C371.243 172.855 355.119 189.108 364.221 213.223C373.324 237.338 348.621 277.439 348.621 277.439C348.621 277.439 348.887 277.4 349.392 277.314C382.508 271.421 398.96 233.248 380.546 204.887C373.683 194.344 368.064 181.976 371.243 172.855Z" fill="black"/>
<path d="M371.243 172.583C371.243 172.583 362.14 192.503 371.243 208.756C380.346 225.009 372.785 270.617 348.617 277.171" stroke="#535461" stroke-miterlimit="10"/>
<path d="M399.962 238.317C399.962 238.317 381.564 235.365 379.887 251.983C378.211 268.601 344.498 270.905 344.498 270.905L345.13 271.328C372.954 289.741 399.557 283.056 395.545 258.606C394.065 249.52 394.189 240.392 399.962 238.317Z" fill="#E36D6D"/>
<path d="M399.961 238.317C399.961 238.317 385.679 241.475 386.859 254.566C388.038 267.657 365.663 283.347 344.513 270.909" stroke="#535461" stroke-miterlimit="10"/>
<path d="M383.776 271.511C383.776 271.511 369.285 268.59 365.42 264.693C361.555 260.797 344.166 253.984 342.236 258.867C340.305 263.749 316.153 280.29 332.574 283.211C348.995 286.132 371.216 287.096 376.045 285.153C380.874 283.211 383.776 271.511 383.776 271.511Z" fill="#A8A8A8"/>
<path opacity="0.2" d="M332.574 281.389C348.999 284.31 371.216 285.274 376.045 283.331C379.725 281.848 382.28 274.723 383.29 271.406L383.772 271.507C383.772 271.507 380.874 283.192 376.045 285.138C371.216 287.084 348.995 286.113 332.574 283.196C327.834 282.353 326.477 280.371 326.99 277.866C327.391 279.501 329.044 280.76 332.574 281.389Z" fill="black"/>
</g>
<defs>
<linearGradient id="paint0_linear" x1="201.145" y1="289.947" x2="201.145" y2="8.70532" gradientUnits="userSpaceOnUse">
<stop stop-color="#808080" stop-opacity="0.25"/>
<stop offset="0.54" stop-color="#808080" stop-opacity="0.12"/>
<stop offset="1" stop-color="#808080" stop-opacity="0.1"/>
</linearGradient>
<linearGradient id="paint1_linear" x1="67442.3" y1="96632.3" x2="67442.3" y2="29082" gradientUnits="userSpaceOnUse">
<stop stop-color="#808080" stop-opacity="0.25"/>
<stop offset="0.54" stop-color="#808080" stop-opacity="0.12"/>
<stop offset="1" stop-color="#808080" stop-opacity="0.1"/>
</linearGradient>
<clipPath id="clip0">
<rect width="400" height="300" fill="white"/>
</clipPath>
</defs>
</svg>
