<?xml version="1.0" encoding="iso-8859-1"?>
<!-- Generator: Adobe Illustrator 19.0.0, SVG Export Plug-In . SVG Version: 6.00 Build 0)  -->
<svg version="1.1" id="Capa_1" xmlns="http://www.w3.org/2000/svg" xmlns:xlink="http://www.w3.org/1999/xlink" x="0px" y="0px"
	 viewBox="0 0 512 512" style="enable-background:new 0 0 512 512;" xml:space="preserve">
<g>
	<g>
		<path d="M512,90V0h-90v30H90V0H0v90h30v332H0v90h90v-30h332v30h90v-90h-30V90H512z M30,30h30v30H30V30z M60,482H30v-30h30V482z
			 M422,452H90v-30H60V90h30V60h332v30h30v332h-30V452z M482,482h-30v-30h30V482z M452,60V30h30v30H452z"/>
	</g>
</g>
<g>
	<g>
		<polygon points="121,136 121,196 151,196 151,166 241,166 241,356 196,356 196,386 316,386 316,356 271,356 271,166 361,166 
			361,196 391,196 391,136 		"/>
	</g>
</g>
<g>
</g>
<g>
</g>
<g>
</g>
<g>
</g>
<g>
</g>
<g>
</g>
<g>
</g>
<g>
</g>
<g>
</g>
<g>
</g>
<g>
</g>
<g>
</g>
<g>
</g>
<g>
</g>
<g>
</g>
</svg>
